<svg width="246" height="98" viewBox="0 0 246 98" fill="none" xmlns="http://www.w3.org/2000/svg">
<path d="M0.252441 84.72V61.44L38.1724 1.8H71.7724V59.04H79.6924V84.72H71.7724V95.52H35.7724V84.72H0.252441ZM30.6124 46.92L28.4524 50.16C37.5724 54.48 44.7724 55.56 51.6124 55.56V51.96C45.2524 51.96 38.8924 50.52 30.6124 46.92Z" fill="#3872E0"/>
<path d="M84.0387 48.72C84.0387 16.68 99.0387 0 122.079 0C145.239 0 160.239 16.68 160.239 48.72C160.239 80.76 145.239 97.44 122.079 97.44C99.0387 97.44 84.0387 80.88 84.0387 48.72ZM108.159 43.8L105.999 47.04C115.119 51.36 127.359 52.44 138.759 52.44V48.84C127.359 48.84 116.439 47.4 108.159 43.8Z" fill="#3872E0"/>
<path d="M166.307 84.72V61.44L204.227 1.8H237.827V59.04H245.747V84.72H237.827V95.52H201.827V84.72H166.307ZM196.667 46.92L194.507 50.16C203.627 54.48 210.827 55.56 217.667 55.56V51.96C211.307 51.96 204.947 50.52 196.667 46.92Z" fill="#3872E0"/>
</svg>
