<svg width="200" height="78" viewBox="0 0 200 78" fill="none" xmlns="http://www.w3.org/2000/svg">
<path d="M61.8504 62.9484V48.7484H52.7504V2.04844H32.5504L0.650391 48.7484V62.9484H37.4504V76.0484H52.7504V62.9484H61.8504ZM17.8504 48.7484L37.4504 19.9484V48.7484H17.8504Z" fill="#ECAFCB"/>
<path d="M67.973 39.2484C67.973 62.1484 79.973 77.3484 100.273 77.3484C120.573 77.3484 132.573 62.1484 132.573 39.2484C132.573 16.3484 119.573 0.648438 100.273 0.648438C80.973 0.648438 67.973 16.3484 67.973 39.2484ZM83.973 39.2484C83.973 22.8484 89.973 14.8484 100.273 14.8484C110.573 14.8484 116.573 22.8484 116.573 39.2484C116.573 55.1484 110.573 63.1484 100.273 63.1484C89.973 63.1484 83.973 55.1484 83.973 39.2484Z" fill="#ECAFCB"/>
<path d="M199.35 62.9484V48.7484H190.25V2.04844H170.05L138.15 48.7484V62.9484H174.95V76.0484H190.25V62.9484H199.35ZM155.35 48.7484L174.95 19.9484V48.7484H155.35Z" fill="#ECAFCB"/>
</svg>
