<svg width="233" height="98" viewBox="0 0 233 98" fill="none" xmlns="http://www.w3.org/2000/svg">
<path d="M35.0959 27.36V32.16C57.4159 32.16 68.6959 42.84 68.6959 61.8C68.6959 85.2 51.6559 96.96 29.6959 96.96C18.5359 96.96 8.2159 95.28 0.295898 91.56V64.8C6.7759 68.4 13.8559 70.32 21.6559 70.32C26.6959 70.32 33.4159 68.16 33.4159 62.64C33.4159 57.72 28.1359 55.32 21.6559 55.32H0.295898V1.8H62.8159V27.36H35.0959Z" fill="#3872E0"/>
<path d="M74.3556 48.72C74.3556 16.68 89.3556 0 112.396 0C135.556 0 150.556 16.68 150.556 48.72C150.556 80.76 135.556 97.44 112.396 97.44C89.3556 97.44 74.3556 80.88 74.3556 48.72ZM98.4756 43.8L96.3156 47.04C105.436 51.36 117.676 52.44 129.076 52.44V48.84C117.676 48.84 106.756 47.4 98.4756 43.8Z" fill="#3872E0"/>
<path d="M156.504 48.72C156.504 16.68 171.504 0 194.544 0C217.704 0 232.704 16.68 232.704 48.72C232.704 80.76 217.704 97.44 194.544 97.44C171.504 97.44 156.504 80.88 156.504 48.72ZM180.624 43.8L178.464 47.04C187.584 51.36 199.824 52.44 211.224 52.44V48.84C199.824 48.84 188.904 47.4 180.624 43.8Z" fill="#3872E0"/>
</svg>
