<svg width="198" height="77" viewBox="0 0 198 77" fill="none" xmlns="http://www.w3.org/2000/svg">
<path d="M26.5947 76.6C43.6947 76.6 55.3947 65.4 55.3947 48.8C55.3947 33.8 45.3947 24.3 30.9947 24.3C26.4947 24.3 22.3947 25.3 19.1947 27.2L22.0947 16.4H50.6947V1.4H10.4947L1.19473 41.1L15.9947 43.9C17.7947 40.3 22.2947 37.7 27.2947 37.7C34.5947 37.7 38.7947 42.2 38.7947 49.8C38.7947 57.6 34.2947 62.3 26.9947 62.3C20.1947 62.3 16.0947 58.1 16.0947 51.1H0.0947266C0.0947266 66.4 10.6947 76.6 26.5947 76.6Z" fill="#ECAFCB"/>
<path d="M61.5275 38.6C61.5275 61.5 73.5275 76.7 93.8275 76.7C114.128 76.7 126.128 61.5 126.128 38.6C126.128 15.7 113.128 0 93.8275 0C74.5275 0 61.5275 15.7 61.5275 38.6ZM77.5275 38.6C77.5275 22.2 83.5275 14.2 93.8275 14.2C104.128 14.2 110.128 22.2 110.128 38.6C110.128 54.5 104.128 62.5 93.8275 62.5C83.5275 62.5 77.5275 54.5 77.5275 38.6Z" fill="#ECAFCB"/>
<path d="M133.305 38.6C133.305 61.5 145.305 76.7 165.605 76.7C185.905 76.7 197.905 61.5 197.905 38.6C197.905 15.7 184.905 0 165.605 0C146.305 0 133.305 15.7 133.305 38.6ZM149.305 38.6C149.305 22.2 155.305 14.2 165.605 14.2C175.905 14.2 181.905 22.2 181.905 38.6C181.905 54.5 175.905 62.5 165.605 62.5C155.305 62.5 149.305 54.5 149.305 38.6Z" fill="#ECAFCB"/>
</svg>
