<svg width="269" height="201" viewBox="0 0 269 201" fill="none" xmlns="http://www.w3.org/2000/svg">
<g id="fly-2" filter="url(#filter0_d_1537_3032)">
<path id="Vector" d="M55.6218 33.6726C52.2479 34.4857 47.2088 48.2551 44.7349 51.0594C42.261 53.8637 33.4829 59.1419 31.3568 66.2332C29.2307 73.3244 22.8004 83.3852 25.7699 91.3025C28.7394 99.2198 30.8829 110.602 34.8394 113.407C38.7959 116.211 44.9001 118.68 42.9219 120.002C40.9437 121.324 27.7481 134.515 27.0873 141.441C26.4264 148.367 31.0438 144.906 33.5176 144.576C35.9915 144.245 40.2785 141.772 41.2698 143.258C42.261 144.745 42.0958 155.298 46.0523 156.454C50.0088 157.611 56.6087 155.58 58.9174 154.202C61.2261 152.824 71.952 143.589 73.5999 144.245C75.2477 144.902 81.3476 145.072 80.1954 147.38C79.0433 149.689 76.3607 159.584 80.3389 160.08C84.3171 160.576 94.5431 155.628 95.5344 157.111C96.5257 158.593 101.474 165.784 105.265 165.819C109.056 165.854 121.921 148.537 126.378 148.537C130.834 148.537 162.825 143.919 164.973 142.763C167.121 141.606 169.425 151.176 170.581 153.319C171.738 155.463 173.055 159.915 176.355 159.424C179.655 158.932 180.807 151.176 181.799 151.671C182.79 152.167 187.242 156.95 190.047 156.454C192.851 155.958 199.612 142.928 199.446 128.085C199.281 113.241 201.103 99.7024 199.446 95.5851C197.79 91.4677 191.199 87.3112 193.999 86.5025C196.799 85.6938 201.751 85.2199 204.555 81.9113C207.359 78.6026 204.885 76.12 209.007 74.5548C213.129 72.9896 230.777 64.968 232.594 61.9723C234.411 58.9767 231.768 56.0072 229.294 56.668C226.82 57.3289 216.925 62.9854 213.459 63.3723C209.994 63.7593 205.542 68.2114 203.729 66.894C201.916 65.5767 197.625 65.2462 194.164 67.2245C190.703 69.2027 185.094 73.6418 184.103 75.6287C183.112 77.6157 179.321 77.4374 180.473 74.5592C181.625 71.6809 183.112 66.1201 182.12 63.3767C181.129 60.6332 178.329 57.3333 176.512 57.168C174.695 57.0028 182.286 47.7681 177.668 43.6421C173.051 39.516 169.09 37.8682 162.329 39.6856C155.569 41.503 151.112 48.5899 150.29 47.6029C149.469 46.616 147.095 46.1464 149.516 41.0204C151.938 35.8943 151.277 27.977 148.312 26.3292C145.347 24.6814 136.769 23.8292 128.356 28.2944C119.943 32.7596 118.46 39.5595 116.812 42.8421C115.165 46.1247 112.36 55.0289 111.534 53.8724C110.708 52.7159 112.691 37.5465 111.204 35.2335C109.717 32.9205 107.247 33.2813 104.773 33.6813C102.3 34.0813 87.9519 43.9769 84.8171 45.6247C81.6824 47.2725 65.5217 47.9333 64.8608 46.2855C64.2 44.6377 61.3956 32.2944 55.6261 33.6813L55.6218 33.6726Z" fill="white"/>
<path id="Vector 1" d="M54 80C56 77.2 60.5 75.5 62.5 75C66.5 73.4891 72 74.5 76 76C80 77.5 85 81.5 85.5 83.5C86 85.5 83 89 82 90C81 91 74.5 95 72.5 95.5C70.5 96 65 97 62.5 96.5C60 96 52 89.5 51 87C50 84.5 51.5 83.5 54 80Z" fill="#ECAFCB"/>
<g id="Group">
<path id="Vector_2" d="M170.829 59.881C173.073 60.0854 174.934 60.0941 176.512 61.4332C177.942 62.6419 178.673 64.1201 178.895 65.8984C179.221 68.5592 178.842 71.0983 177.403 73.42C176.795 74.4026 176.199 75.3939 175.603 76.3809C177.977 79.42 181.951 79.8156 185.134 82.5243C184.447 78.9026 186.534 77.1591 188.525 75.3765C190.686 73.4418 192.921 71.5983 195.481 70.1983C196.834 69.4549 198.251 68.9505 199.82 68.981C200.629 68.9984 201.634 68.9897 202.055 69.607C203.025 71.0201 203.96 70.3592 205.003 69.8809C207.246 68.8549 209.586 68.0853 211.951 67.3984C217.333 65.8419 222.494 63.7767 227.22 60.7202C227.464 60.5637 227.716 60.4202 227.964 60.2724C228.642 59.8724 229.351 59.6506 229.872 60.4332C230.407 61.2332 229.92 61.7854 229.246 62.2158C228.82 62.4897 228.377 62.7375 227.946 63.0028C223.172 65.9766 217.981 67.9766 212.616 69.5636C210.046 70.3244 207.538 71.2635 205.047 72.2548C203.968 72.6853 203.507 73.3157 203.477 74.52C203.377 78.6026 200.938 80.9721 197.377 82.3939C196.277 82.833 195.042 83.0982 194.138 82.0678C193.212 81.0156 193.442 79.7939 194.047 78.62C195.099 76.5591 196.812 75.107 198.551 73.6853C199.377 73.0114 200.242 72.3896 201.147 71.6983C200.481 70.7896 199.699 70.9027 198.929 71.0505C197.847 71.2548 196.86 71.7244 195.938 72.3027C193.16 74.0331 190.616 76.0722 188.321 78.4026C186.686 80.0591 186.655 80.5548 187.716 82.5895C187.951 83.0373 188.434 83.5808 188.068 83.9721C187.068 85.0417 187.964 85.6417 188.521 86.3199C190.281 88.4677 191.634 90.8416 192.642 93.4329C193.586 95.8633 194.586 98.2676 195.594 100.672C196.303 102.363 196.86 104.098 196.725 105.937C196.103 114.176 196.586 122.454 195.934 130.689C195.555 135.463 194.421 140.119 192.881 144.663C192.199 146.676 191.116 148.471 189.725 150.071C187.977 152.084 186.912 152.219 184.677 150.737C183.095 149.689 181.834 148.293 180.516 146.728C179.66 147.611 179.508 148.706 179.086 149.645C178.612 150.702 178.238 151.798 177.773 152.858C177.308 153.928 176.534 154.715 175.299 154.637C174.138 154.567 173.89 153.511 173.564 152.641C171.912 148.237 170.273 143.824 168.647 139.411C168.395 138.724 168.299 137.959 167.229 138.25C162.882 139.441 158.33 139.415 153.956 140.467C148.178 141.854 142.365 143.05 136.447 143.68C132.773 144.072 129.108 144.602 125.404 144.498C124.186 144.463 123.4 144.889 122.63 145.798C118.265 150.95 113.6 155.797 108.113 159.789C107.587 160.171 107.091 160.602 106.552 160.967C104.652 162.271 102.795 162.071 101.108 160.319C99.5824 158.732 98.478 156.841 97.7302 154.793C97.3128 153.645 96.8563 153.337 95.6824 153.745C93.0172 154.671 90.3172 155.506 87.6129 156.319C86.5086 156.654 85.3695 156.945 84.226 157.063C82.4521 157.25 81.7086 156.571 81.4738 154.802C81.2434 153.084 81.6869 151.498 82.4303 149.98C83.4216 147.95 84.7347 146.128 86.1477 144.38C89.2868 140.489 92.4042 136.585 95.3824 132.567C95.9389 131.815 96.6215 131.154 97.2693 130.476C97.7476 129.976 98.3041 129.593 98.9563 130.185C99.5389 130.715 99.178 131.25 98.8432 131.728C97.2606 133.98 95.7128 136.259 94.0694 138.467C91.7737 141.545 89.3825 144.55 87.0781 147.619C85.8607 149.241 84.739 150.941 84.239 152.954C84.1564 153.289 84.226 153.658 84.226 154.124C85.0651 154.393 85.8086 153.997 86.5216 153.789C88.952 153.08 91.365 152.293 93.7824 151.537C94.4041 151.341 95.0215 151.124 95.6519 150.967C98.6345 150.219 99.0128 150.411 100.204 153.298C100.874 154.915 101.691 156.445 102.782 157.811C103.717 158.98 104.148 159.058 105.3 158.128C109.13 155.041 113.121 152.124 116.304 148.302C117.043 147.411 117.817 146.541 118.63 145.719C119.417 144.928 119.873 144.124 119.926 142.911C119.978 141.732 121.817 142.415 122.239 141.28C122.486 140.606 122.895 139.989 123.2 139.337C124.308 136.972 125.565 134.689 126.917 132.459C127.252 131.906 127.634 131.359 128.099 130.915C128.912 130.141 129.856 130.067 130.417 130.685C131.069 131.402 130.873 132.093 130.321 132.819C128.465 135.254 127.213 138.032 125.895 140.772C125.773 141.024 125.613 141.285 125.826 141.711C127.465 141.976 129.169 141.711 130.873 141.537C138.16 140.78 145.36 139.55 152.477 137.815C155.93 136.976 159.464 136.585 162.982 136.128C163.625 136.046 164.273 135.937 164.908 135.798C166.543 135.438 167.17 134.473 166.79 132.902C166.708 132.55 166.577 132.202 166.556 131.85C166.534 131.476 166.695 131.137 167.051 130.954C167.482 130.737 167.943 130.763 168.234 131.146C168.669 131.719 169.029 132.35 169.395 132.967C169.612 133.337 169.686 133.902 169.995 134.085C171.156 134.78 171.408 135.611 170.773 136.811C170.638 137.067 170.786 137.519 170.89 137.854C172.203 141.98 173.903 145.945 175.703 150.037C176.542 149.237 176.651 148.263 177.008 147.424C177.438 146.428 177.734 145.372 178.19 144.389C179.042 142.554 180.295 142.363 181.738 143.824C182.295 144.389 182.773 145.037 183.277 145.65C183.968 146.489 184.69 147.302 185.564 147.963C186.851 148.941 187.029 148.928 188.016 147.706C189.216 146.215 190.021 144.511 190.538 142.689C191.951 137.728 192.981 132.702 192.968 127.511C192.951 121.063 192.908 114.615 193.429 108.181C193.651 105.45 193.194 102.872 191.951 100.394C191.142 98.7807 190.551 97.0589 189.929 95.359C188.899 92.5329 187.368 90.0286 185.473 87.6982C183.512 85.2851 181.238 83.3504 178.277 82.2895C176.469 81.6417 174.895 80.6548 173.938 78.9069C173.016 79.1548 172.651 79.9287 172.138 80.4982C166.177 87.1373 158.499 89.746 149.834 90.0851C148.873 90.1242 148.069 89.9068 147.878 88.8242C147.717 87.9329 148.373 87.2851 149.699 87.1547C152.151 86.9112 154.591 86.6677 157.004 86.1156C165.53 84.1547 171.216 78.7026 175.403 71.3548C176.338 69.7114 176.508 67.9201 176.264 66.0853C175.982 63.9723 174.612 62.6984 172.499 62.5767C171.634 62.5245 170.76 62.581 169.895 62.6288C168.769 62.6897 167.856 63.0984 167.056 63.9854C166.143 65.0027 165.043 65.8593 163.986 66.7375C163.547 67.1027 163.038 67.4158 162.517 67.6505C161.912 67.9244 161.23 68.0505 160.686 67.5114C160.099 66.9332 160.104 66.2027 160.403 65.4897C160.808 64.5375 161.49 63.7723 162.273 63.1202C163.108 62.4245 164.008 61.8202 164.999 61.3549C169.443 59.268 171.334 55.2681 172.751 50.929C172.838 50.6594 172.821 50.3551 172.838 50.0681C173.077 46.3812 171.46 44.8029 167.777 45.1942C166.03 45.3812 164.386 45.9812 162.838 46.7768C156.634 49.9638 150.721 53.6115 145.469 58.2332C139.773 63.2419 135.843 69.3723 134.052 76.8113C133.639 78.5374 133.717 80.2635 133.704 81.9939C133.699 82.7156 133.791 83.446 133.752 84.1634C133.721 84.7808 133.973 85.5721 133.234 85.9199C132.365 86.3286 132.234 85.3417 131.752 85.0025C130.678 84.2504 129.573 83.646 128.165 83.7373C126.152 83.8678 124.099 83.5939 122.208 84.6112C121.595 84.9417 120.913 85.0025 120.491 84.2938C120.039 83.5417 120.552 83.0721 121.113 82.6895C121.895 82.1547 122.726 81.7721 123.695 81.633C126.23 81.2721 128.739 81.2417 131.099 82.02C131.556 81.8113 131.504 81.4895 131.491 81.233C131.186 75.8026 133.125 70.9896 135.712 66.4027C138.125 62.1289 141.404 58.555 145.204 55.4681C150.338 51.2942 155.899 47.7681 161.773 44.7421C164.303 43.4377 166.969 42.629 169.912 42.8508C172.734 43.0638 174.729 45.4029 175.073 47.8812C175.447 50.5724 174.882 53.0463 173.647 55.4246C172.882 56.8941 171.929 58.2419 170.808 59.8637L170.829 59.881ZM195.651 80.3243C199.181 79.82 201.368 77.4461 201.107 74.5548C198.929 76.0852 196.921 77.6157 195.651 80.3243Z" fill="black"/>
<path id="Vector_3" d="M111.791 60.1419C112.487 59.6984 112.578 59.0811 112.83 58.5767C116.047 52.0942 119.243 45.5942 122.469 39.116C123.504 37.0378 124.739 35.0856 126.247 33.2987C127.165 32.2118 128.286 31.4248 129.599 30.9813C132.617 29.9553 135.656 28.9987 138.812 28.4988C139.312 28.4205 139.817 28.3422 140.321 28.3118C143.978 28.077 146.112 29.49 147.017 33.0726C148.047 37.1726 147.491 41.1204 145.295 44.7855C145.034 45.2203 144.76 45.6464 144.464 46.0594C144.099 46.5725 148.073 50.142 148.721 50.4072C149.234 50.6159 149.664 50.9333 149.477 51.5333C149.251 52.2594 148.63 52.1985 148.034 52.0681C145.225 50.2246 143.873 46.2073 141.112 49.942C140.143 50.8116 139.16 51.6681 138.125 52.4594C137.482 52.9507 136.721 53.3246 135.991 52.542C135.421 51.9333 135.547 51.129 136.451 50.2768C137.078 49.6855 137.834 49.229 138.512 48.6855C142.821 45.2334 145.46 40.9682 145.021 35.2204C144.982 34.7204 144.899 34.2161 144.769 33.7291C144.099 31.19 143.012 30.3466 140.378 30.5813C136.747 30.9074 133.291 32.0161 129.882 33.2465C128.682 33.677 127.873 34.6422 127.13 35.6378C126.047 37.0943 125.073 38.6204 124.269 40.2465C120.952 46.9247 117.673 53.6202 114.33 60.2897C113.756 61.4376 113.639 62.3115 114.565 63.3941C116.043 65.1201 116.926 67.2158 117.391 69.4375C118.23 73.4766 118.839 77.5461 119.056 81.6852C119.295 86.2504 118.226 90.4851 116.095 94.4285C111.517 102.915 105.808 110.524 98.2432 116.628C96.2606 118.228 94.1389 119.598 91.8346 120.685C88.1607 122.411 84.3868 123.898 80.5129 125.102C76.4043 126.385 72.2 126.363 68.0478 125.515C63.0174 124.489 58.0045 123.346 53.1132 121.724C50.1002 120.724 47.4828 119.089 45.2046 116.911C42.8481 114.659 40.5612 112.337 38.1873 110.102C34.8438 106.959 32.8047 103.133 32.1178 98.6154C31.6134 95.3111 30.7917 92.0894 29.683 88.946C28.3352 85.1243 28.6221 81.42 30.2656 77.7504C31.396 75.2287 32.8351 72.8853 34.2917 70.5505C36.1351 67.6027 37.922 64.6245 39.5699 61.5636C41.0785 58.7637 42.9351 56.3202 46.0785 55.1767C46.9437 54.8637 47.4698 54.1724 47.7959 53.3246C49.7089 48.3159 52.4306 43.6638 54.2436 38.6117C54.5697 37.7074 54.9393 36.8074 56.0827 36.7161C57.1306 36.6335 57.8653 37.1987 58.4479 37.9987C59.2653 39.1247 59.8305 40.3769 60.2436 41.6943C60.8479 43.629 61.4218 45.5725 61.9696 47.5203C62.4262 49.142 62.4001 49.1594 64.1392 49.1942C69.9304 49.3159 75.726 49.429 81.5173 49.542C82.3781 49.5594 83.2303 49.6159 84.0346 49.1116C88.2868 46.4594 92.8997 44.5116 97.391 42.3334C99.6171 41.2551 101.752 40.0508 103.639 38.4421C103.913 38.2074 104.2 37.9813 104.508 37.7943C106.491 36.5726 108.078 37.2856 108.082 39.5682C108.095 44.6334 108.508 49.7116 107.752 54.755C107.547 56.1246 107.839 57.1376 109.013 57.9376C109.965 58.5854 110.826 59.368 111.791 60.1376V60.1419ZM111.078 64.0984C111.078 64.0984 110.182 62.9593 108.991 62.0723C108.582 61.7723 108.247 61.3593 107.817 61.1115C104.787 59.3811 104.013 56.7593 104.734 53.5159C104.795 53.2333 104.826 52.942 104.852 52.655C105.226 48.9899 105.052 45.3203 104.904 41.5638C102.287 43.4508 99.4866 44.6551 96.7693 46.0116C92.8171 47.9812 88.7129 49.6638 85.0694 52.2072C84.3607 52.7029 83.5738 52.7333 82.7781 52.7203C75.9695 52.5985 69.1609 52.4768 62.3522 52.3116C60.2479 52.2594 59.6131 51.6507 59.1697 49.4898C58.774 47.5768 58.4914 45.6334 57.8523 43.7769C57.5392 42.8595 57.4436 41.816 56.5175 41.016C54.6741 45.1551 52.8828 49.1855 51.0741 53.2115C50.6306 54.2028 50.1784 55.1941 49.6306 56.1289C48.9915 57.2246 47.8263 57.855 46.7089 57.5985C45.5089 57.3202 44.9568 57.8941 44.2829 58.5332C43.3307 59.4419 42.5698 60.5028 41.9655 61.668C39.7916 65.8462 37.3612 69.881 34.9699 73.9331C34.0873 75.4287 33.3308 76.9983 32.6004 78.5722C31.1613 81.6634 30.9091 84.8286 32.1438 88.0634C33.4656 91.5242 34.3308 95.1111 35.0395 98.7415C35.709 102.189 37.3438 105.111 39.9003 107.528C42.3742 109.868 44.8263 112.228 47.3089 114.563C49.3393 116.476 51.6611 117.885 54.3393 118.746C58.6914 120.141 63.1479 121.124 67.5957 122.124C72.6652 123.263 77.6651 123.041 82.5216 121.015C84.7259 120.098 86.965 119.254 89.1694 118.333C91.7911 117.237 94.1954 115.776 96.3997 113.967C103.452 108.181 108.843 101.05 113.169 93.0894C114.621 90.4155 115.673 87.5373 115.808 84.4286C116.026 79.4635 115.178 74.6113 114.121 69.794C113.804 68.3418 113.243 66.9288 112.169 65.7506L111.073 64.0984H111.078Z" fill="black"/>
<path id="Vector_4" d="M33.37 139.228C37.4222 138.15 41.4656 138.254 45.2482 136.911C47.5916 136.076 48.4873 137.215 48.2351 139.528C48.0786 140.963 47.6612 142.367 47.4481 143.793C47.1221 145.967 47.1916 148.128 48.0308 150.206C48.5699 151.55 48.7568 151.632 50.1351 151.05C50.8003 150.767 51.4611 150.463 52.0916 150.106C57.1176 147.241 62.3524 144.732 67.0827 141.354C68.1479 140.593 69.1175 139.802 69.8392 138.654C70.861 137.028 71.774 136.611 73.5218 137.345C76.8 138.724 80.2652 139.537 83.5478 140.872C84.1478 141.115 84.7391 141.411 85.2826 141.763C85.9782 142.219 86.1695 142.924 85.8217 143.663C85.4608 144.432 84.7782 144.602 83.9869 144.389C83.8478 144.35 83.7043 144.311 83.5782 144.245C80.413 142.589 76.8044 142.15 73.6044 140.598C72.9914 140.302 72.3914 140.089 71.8783 140.802C70.3088 142.985 67.9914 144.289 65.7741 145.593C61.0393 148.38 56.2741 151.128 51.3655 153.619C48.8481 154.897 46.4395 154.067 45.4786 151.063C44.4699 147.911 44.5612 144.798 45.1743 141.632C45.296 141.011 45.6351 140.411 45.3264 139.545C43.9699 139.824 42.6004 140.172 41.2134 140.376C38.4961 140.772 35.7439 140.959 33.1396 141.967C32.3179 142.285 31.3961 142.398 30.7048 141.654C30.0222 140.919 30.2179 140.032 30.5222 139.198C31.857 135.537 33.9613 132.35 36.6483 129.55C39.4656 126.611 42.7134 124.176 46.0134 121.815C46.6612 121.35 47.3482 120.941 48.1655 120.833C48.7916 120.75 49.5264 120.424 49.822 121.298C50.0612 122.002 49.4786 122.298 48.9655 122.607C45.8438 124.472 43.1134 126.859 40.37 129.215C37.8787 131.354 35.8178 133.872 34.2352 136.759C33.857 137.445 33.3744 138.102 33.3787 139.228H33.37Z" fill="black"/>
<path id="Vector_5" d="M66.8698 72.094C70.0697 72.2418 73.1262 72.8244 75.9697 74.4635C78.2914 75.7983 80.6218 77.1113 82.8131 78.6548C83.8174 79.3635 84.7435 80.1635 85.5565 81.1026C87.1478 82.946 87.0696 84.9156 86.0739 86.9503C84.8565 89.4329 82.8087 91.1938 80.6044 92.7198C79.3914 93.5633 78.8305 94.4198 79.1044 95.9155C79.3131 97.0459 79.2609 98.2328 79.0088 99.372C78.6696 100.915 77.5566 101.394 76.287 100.446C75.3697 99.7589 74.561 98.9024 73.7958 98.0415C73.2566 97.4372 72.7479 97.172 71.9306 97.4328C64.9741 99.6546 59.3698 96.7502 54.0916 92.672C53.3525 92.0981 52.6742 91.4286 52.0308 90.746C49.3308 87.8851 49.0091 84.5417 51.1742 81.2591C54.0873 76.8417 58.3698 74.2331 63.2046 72.4114C64.3698 71.9722 65.635 72.0983 66.8698 72.0896V72.094ZM67.0002 95.5807C67.3002 95.5676 67.6697 95.5894 68.0263 95.5285C74.2479 94.4981 79.174 91.2372 83.1392 86.4938C84.5522 84.8025 84.2696 83.433 82.5305 81.9678C79.687 79.5808 76.5392 77.6504 73.0871 76.2765C71.1567 75.507 69.1175 75.4896 67.0958 75.8548C66.0306 76.0461 64.9871 76.3678 63.9393 76.6374C62.9915 76.8809 62.0263 77.4809 61.1872 76.3678C60.8959 75.9852 60.5176 76.2983 60.2307 76.4722C57.5307 78.0809 55.0525 79.9374 53.3481 82.6504C51.8308 85.0721 52.0395 87.0808 54.0351 89.1329C56.3872 91.5546 59.1829 93.3329 62.3002 94.6111C63.7915 95.2242 65.3306 95.5676 67.0045 95.585L67.0002 95.5807ZM76.7088 97.6589C76.9957 96.8676 77.1218 96.2111 76.774 95.4937C76.1088 95.5807 75.6001 95.8198 75.2697 96.3589C75.6392 96.9328 76.0001 97.3502 76.7088 97.6589Z" fill="black"/>
<path id="Vector_6" d="M76.0044 61.9723C76.1218 61.468 76.5219 60.8549 76.7914 60.568C77.0958 60.2506 77.3914 59.8984 77.8697 60.168C78.3131 60.4202 78.3131 60.8506 78.1392 61.2854C78.1392 61.2854 78.174 62.0202 77.8001 62.5506C77.6175 63.0593 77.0871 63.5114 76.4914 63.3288C75.8914 63.1767 75.8392 62.6549 76.0001 61.9723H76.0044Z" fill="black"/>
<path id="Vector_7" d="M68.4088 61.9723C67.9914 61.9549 67.6393 61.7115 67.6349 61.2289C67.6219 60.2158 68.5132 60.0463 69.2001 59.781C69.6262 59.6202 70.0349 59.9028 70.1653 60.368C70.3218 60.9115 69.2436 61.9158 68.4132 61.9723H68.4088Z" fill="black"/>
<path id="Vector_8" d="M72.4088 81.1591C72.3088 81.9113 70.7871 82.8547 70.1001 82.5765C69.7392 82.433 69.5566 82.133 69.6523 81.733C69.8131 81.0808 71.2088 80.2113 71.8566 80.3765C72.2349 80.4721 72.4392 80.7461 72.4088 81.1591Z" fill="black"/>
<path id="Vector_9" d="M66.6565 82.9199C66.0696 82.8765 65.7044 82.546 65.674 81.9982C65.6435 81.4374 66.0174 81.0504 66.5696 81.033C67.1218 81.0156 67.5174 81.3678 67.5392 81.933C67.5609 82.4982 67.1783 82.8069 66.6522 82.9243L66.6565 82.9199Z" fill="black"/>
</g>
</g>
<defs>
<filter id="filter0_d_1537_3032" x="0" y="0" width="268.196" height="200.819" filterUnits="userSpaceOnUse" color-interpolation-filters="sRGB">
<feFlood flood-opacity="0" result="BackgroundImageFix"/>
<feColorMatrix in="SourceAlpha" type="matrix" values="0 0 0 0 0 0 0 0 0 0 0 0 0 0 0 0 0 0 127 0" result="hardAlpha"/>
<feOffset dx="5" dy="5"/>
<feGaussianBlur stdDeviation="15"/>
<feColorMatrix type="matrix" values="0 0 0 0 0 0 0 0 0 0 0 0 0 0 0 0 0 0 0.1 0"/>
<feBlend mode="normal" in2="BackgroundImageFix" result="effect1_dropShadow_1537_3032"/>
<feBlend mode="normal" in="SourceGraphic" in2="effect1_dropShadow_1537_3032" result="shape"/>
</filter>
</defs>
</svg>
