<svg width="174" height="177" viewBox="0 0 174 177" fill="none" xmlns="http://www.w3.org/2000/svg">
<g id="mobile" filter="url(#filter0_d_1534_5140)">
<path id="Vector" d="M77.2344 36.7173C79.3387 34.4738 73.7909 30.9217 76.3126 27.3C78.6648 23.9261 96.7298 23.1957 112.182 32.613C127.634 42.0303 131.016 46.8607 133.434 53.378C135.851 59.8953 139.473 73.03 137.782 81.3168C136.09 89.6037 133.434 102.777 127.156 108.986C120.877 115.195 101.56 125.29 97.9385 125.556C94.3168 125.821 93.8342 127.029 93.5908 129.442C93.3473 131.855 90.056 139.434 85.4256 140.838C80.7952 142.242 68.9693 140.129 64.6171 136.295C60.265 132.46 52.5042 138.377 49.3868 138.134C46.2695 137.89 42.0652 136.295 42.0652 136.295C42.0652 136.295 32.2609 140.968 27.6697 135.808C23.0784 130.647 25.4958 123.051 26.9436 119.243C28.3914 115.434 34.0174 104.747 33.8609 102.121C33.7044 99.4949 28.9479 77.2212 33.8609 74.3517C38.7739 71.4821 42.6086 69.5517 42.8652 66.1692C43.1217 62.7866 47.3869 57.4779 44.6521 53.1302C41.9173 48.7824 40.6261 39.1259 44.6521 38.6433C44.6521 38.6433 50.2303 38.1607 54.6476 40.5738C59.065 42.9868 58.578 44.9215 64.3736 42.265C70.1692 39.6086 77.2344 36.7129 77.2344 36.7129V36.7173Z" fill="white"/>
<path id="Vector 3" d="M41.0001 73.9999C38.2001 74.3999 36.5001 77.1666 36.0001 78.4999C34.0001 84.5 36.5001 98.9999 38.0001 105.5C39.5001 103.5 43.2001 99.6999 46.0001 100.5C48.8001 101.3 46.8334 107.833 45.5001 111C47.1667 109.833 50.8001 107.4 52.0001 107C53.2001 106.6 54.1667 108.167 54.5001 109L59.5001 108.5C59.8334 106.667 60.8001 102.6 62.0001 101C63.2001 99.3999 68.5001 102.333 71.0001 104C70.8334 93.6666 70.4001 72.5999 70.0001 70.9999C69.5001 68.9999 61.5001 69.4999 55.5001 69.9999C49.5001 70.4999 44.5001 73.4999 41.0001 73.9999Z" fill="#ECAFCB"/>
<g id="Group">
<path id="Vector_2" d="M85.6692 121.973C86.8388 120.725 88.0431 119.977 89.5909 119.951C90.0431 119.943 90.5039 119.938 90.6605 120.456C90.817 120.986 90.4518 121.321 90.0127 121.399C88.6301 121.647 87.591 122.656 86.0866 123.077C86.8388 125.125 87.0127 127.26 86.6953 129.621C87.7518 129.229 87.8518 128.36 88.2518 127.755C88.6388 127.169 89.0953 126.699 89.8474 126.973C90.6953 127.282 90.7822 127.99 90.6126 128.769C90.23 130.503 89.3562 131.995 88.3214 133.408C83.978 139.342 78.0085 140.76 71.5172 137.334C68.8303 135.916 66.1825 134.416 63.5651 132.864C62.4782 132.221 61.4565 132.103 60.2695 132.464C57.7087 133.251 55.1304 133.973 52.5522 134.699C51.787 134.916 51.0044 135.086 50.2218 135.221C47.1218 135.76 44.2392 135.686 42.6523 132.225C41.3393 133.173 40.161 134.134 38.8784 134.929C36.9741 136.121 34.3567 135.938 32.7741 134.629C31.6785 133.725 29.1611 128.434 29.2089 127.034C29.3046 124.347 29.6524 121.699 30.4307 119.112C31.7307 114.786 33.5132 110.677 35.9132 106.856C36.5871 105.777 36.6393 104.838 36.4002 103.617C34.948 96.1384 34.0437 88.6037 34.235 80.9516C34.3089 78.0212 35.7611 76.0212 37.9915 74.6343C44.2566 70.7473 51.0652 68.4778 58.5086 68.3735C60.9695 68.3387 63.4347 68.2995 65.8955 68.2778C66.3999 68.2735 66.9129 68.2995 67.4129 68.3691C70.5694 68.8126 72.2259 70.2734 72.3129 73.6212C72.3694 75.7908 72.3781 77.9647 72.3824 80.1386C72.3998 87.095 72.6172 94.0602 71.9346 100.986C71.7433 102.956 72.1346 104.225 73.7868 105.243C74.4781 105.669 74.9954 106.29 75.878 105.669C76.1911 105.447 76.5824 105.512 76.8606 105.821C77.1563 106.151 77.0823 106.504 76.8041 106.777C76.3476 107.221 76.3563 107.582 76.8041 108.051C80.591 112.043 83.2084 116.79 85.6692 121.969V121.973ZM69.3825 101.795C69.3825 92.2036 69.4042 83.0168 69.3694 73.8299C69.3607 71.5821 68.7999 71.0213 66.526 70.9082C64.2869 70.7995 62.039 70.8647 59.7956 70.8256C52.3261 70.6865 45.5653 73.0169 39.1654 76.669C38.3654 77.1255 38.0045 77.5473 38.274 78.5386C38.4219 79.0864 38.3393 80.1386 37.6697 80.2168C36.1872 80.3907 36.4828 81.3603 36.461 82.2559C36.3263 87.995 37.0306 93.6688 37.9001 99.3253C38.061 100.373 37.9914 101.486 38.661 102.564C39.4393 101.943 40.1566 101.36 40.8827 100.791C42.3175 99.6644 43.9523 99.2036 45.761 99.3992C47.1523 99.5471 47.7827 100.143 48.1435 101.508C48.4479 102.656 48.4087 103.799 48.2261 104.951C48.0783 105.89 47.9392 106.834 47.7696 107.934C49.1174 107.26 50.1826 106.638 51.313 106.182C52.3435 105.764 53.5522 105.534 54.3 106.577C54.9087 107.425 55.613 107.312 56.3913 107.303C58.7217 107.277 58.6825 107.269 58.9782 104.977C59.5564 100.473 62.1303 98.6688 66.6129 100.486C67.3999 100.804 68.1564 101.212 69.3781 101.799L69.3825 101.795ZM84.5649 128.499C84.5823 127.051 84.5432 126.121 84.2388 125.208C82.2736 119.369 79.1736 114.203 75.065 109.621C74.3215 108.79 73.7433 108.825 72.8737 109.434C68.3694 112.586 63.8216 115.669 59.313 118.812C58.3652 119.473 57.5391 120.295 56.6217 120.999C55.8826 121.569 55.9435 122.16 56.3956 122.864C57.7434 124.955 59.3521 126.816 61.439 128.182C65.5564 130.877 69.9085 133.19 74.3085 135.355C77.1737 136.764 80.2215 136.66 82.9302 134.608C83.8997 133.873 85.2258 133.277 84.178 131.629C83.9954 131.342 84.2301 130.79 84.291 130.36C84.3997 129.573 84.5214 128.79 84.5606 128.503L84.5649 128.499ZM31.5698 127.916C32.4872 127.934 32.7219 127.234 33.2741 127.073C33.8915 126.89 34.4871 127.403 34.3089 128.012C34.2306 128.277 34.0176 128.503 33.8654 128.747C32.8524 130.382 32.8307 131.686 33.8046 132.69C34.7567 133.673 36.5523 133.76 38.0219 132.829C39.5001 131.895 40.7523 130.686 41.9567 129.425C45.3392 125.886 47.9739 121.829 50.2304 117.508C50.9739 116.077 51.5739 114.647 51.5304 112.977C51.5 111.895 51.7739 110.825 52.2783 109.838C52.5087 109.386 52.7522 108.925 52.313 108.256C51.0087 108.582 49.9087 109.364 48.8566 110.203C47.7827 111.064 46.7653 111.99 45.7044 112.864C45.2349 113.251 44.7001 113.477 44.1262 113.034C43.574 112.608 43.6044 112.03 43.7783 111.456C43.9044 111.043 44.1001 110.651 44.2827 110.256C44.7957 109.134 45.2392 107.99 45.5609 106.799C45.9218 105.46 46.1131 104.108 46.0479 102.721C46.0087 101.938 45.6479 101.499 44.8131 101.617C44.387 101.677 43.9305 101.699 43.5566 101.877C41.6218 102.817 40.0219 104.121 39.2828 106.23C39.161 106.573 39.1176 106.934 38.8089 107.169C37.1045 108.464 36.6437 110.512 35.5393 112.325C39.0002 113.586 42.2044 115.112 45.6653 115.925C46.1566 116.043 46.6914 116.034 47.087 116.399C47.2305 116.534 47.3522 116.76 47.3566 116.951C47.3696 117.251 47.1696 117.538 46.874 117.573C46.4522 117.621 46.0131 117.586 45.5827 117.538C42.8262 117.243 40.2001 116.434 37.6219 115.447C36.948 115.19 36.2654 114.934 35.5784 114.716C34.9393 114.512 34.4567 114.686 34.1958 115.364C32.6524 119.369 31.435 123.442 31.5654 127.912L31.5698 127.916ZM72.6955 107.517C70.865 105.564 68.7433 104.325 66.6086 103.121C65.9216 102.734 65.1651 102.425 64.4043 102.238C62.9869 101.886 62.0782 102.325 61.7217 103.704C61.1912 105.769 61.026 107.86 62.5608 109.669C62.9391 110.117 63.2564 110.59 63.4434 111.151C63.6781 111.86 63.5391 112.473 62.8825 112.838C62.326 113.147 61.7391 113.021 61.3086 112.53C60.9782 112.151 60.7043 111.721 60.3956 111.316C59.4043 110.021 57.1956 109.408 55.7043 109.986C55.1739 110.19 54.9348 110.569 54.8348 111.117C54.6217 112.251 54.2695 113.369 54.1391 114.512C53.9608 116.077 54.1522 117.616 54.9478 119.247C60.5347 114.66 66.652 111.26 72.6955 107.521V107.517ZM58.9739 130.038C55.5739 127.125 53.1695 123.856 51.9174 119.312C49.8261 123.029 47.7653 126.142 45.4305 129.082C44.1653 130.673 45.2696 132.616 47.3174 132.816C47.8174 132.864 48.3392 132.882 48.8348 132.799C52.1826 132.247 55.3826 131.182 58.9739 130.038Z" fill="black"/>
<path id="Vector_3" d="M81.7997 31.8434C81.9171 33.4304 82.517 34.9042 82.9301 36.4173C83.104 37.0434 83.3909 37.639 83.5518 38.2694C84.0344 40.1042 83.4953 41.0172 81.6649 41.4694C80.5431 41.7477 79.391 41.9303 78.2823 42.2433C75.8345 42.939 73.5084 43.9737 71.2954 45.2041C68.252 46.8954 65.039 48.2346 61.9564 49.8345C60.0955 50.7997 58.5129 50.5389 56.9303 49.3172C54.8608 47.7172 52.6956 46.2694 50.2608 45.2737C47.5087 44.152 47.0696 44.5042 47.4435 47.465C47.713 49.5867 48.5043 51.5476 49.5087 53.3867C50.7956 55.7562 50.8217 57.9562 49.6434 60.4083C48.426 62.9431 47.3957 65.5952 47.4522 68.517C47.4652 69.3083 47.1087 69.9648 46.1783 69.9517C45.2522 69.9387 45.0087 69.2778 44.9217 68.4865C44.7913 67.317 44.8696 66.1735 45.1913 65.0431C45.7261 63.1605 46.2261 61.2518 47.1217 59.5127C48.0435 57.7258 47.9434 56.1345 46.9652 54.391C45.9391 52.5606 45.2043 50.5824 44.8652 48.478C44.6783 47.3259 44.5826 46.1737 44.7261 45.0128C45.0218 42.6172 46.3652 41.5781 48.7565 41.965C49.6043 42.1042 50.4434 42.3781 51.2478 42.6955C53.7565 43.6824 56.0695 45.0389 58.1912 46.6954C59.1738 47.4606 60.0607 47.4911 61.1781 46.9302C64.0259 45.5041 66.9346 44.2042 69.7476 42.6998C72.7475 41.0911 75.8345 39.6607 79.191 38.8955C80.5345 38.5912 80.5214 38.5303 80.117 37.1086C79.6605 35.5086 79.1606 33.9173 78.7475 32.3043C78.1301 29.8869 79.017 28.726 81.5388 28.6C83.5779 28.5 85.5909 28.7782 87.5909 29.1217C94.2778 30.2652 100.682 32.2825 106.656 35.5303C111.43 38.1216 116.286 40.5651 120.917 43.4129C122.025 44.0955 123.121 44.8085 124.186 45.5563C127.091 47.5998 128.995 50.3302 129.751 53.8258C130.703 58.2171 131.951 62.5301 133.421 66.7735C134.89 71.0126 134.838 75.3256 133.934 79.6386C132.577 86.1081 130.338 92.3167 127.96 98.4601C126.582 102.012 124.369 105.077 121.499 107.612C115.33 113.069 108.382 117.116 100.356 119.182C99.3038 119.451 98.2647 119.764 97.3908 120.469C97.0126 120.773 96.5951 120.79 96.2299 120.408C95.8517 120.012 96.0473 119.647 96.2386 119.229C96.9169 117.734 98.2647 117.251 99.6864 116.86C103.265 115.864 106.634 114.382 109.891 112.617C113.221 110.812 116.273 108.625 119.13 106.147C121.921 103.725 124.064 100.804 125.364 97.3732C127.577 91.5515 129.63 85.669 130.93 79.5603C131.838 75.3038 131.847 71.0865 130.321 66.93C128.869 62.9822 127.764 58.9257 126.886 54.8171C126.243 51.8128 124.708 49.4171 122.138 47.8215C114.073 42.8129 105.847 38.0781 96.9517 34.6782C92.9561 33.1521 88.7343 32.3521 84.4866 31.7956C83.6387 31.6825 82.7692 31.4956 81.804 31.8391L81.7997 31.8434Z" fill="black"/>
<path id="Vector_4" d="M87.5823 102.591C84.4953 102.591 81.7606 102.047 79.3476 100.386C77.1302 98.8601 75.8302 96.8471 75.8824 94.0341C75.9519 90.4776 77.1606 87.4124 79.4911 84.7472C80.0258 84.1342 80.8997 83.6994 80.6476 82.5907C80.5302 82.082 81.0954 81.8733 81.4867 81.7559C82.5214 81.4559 83.2258 80.7559 83.8649 79.956C84.5693 79.082 85.4475 78.4864 86.5518 78.2473C89.8562 77.5342 93.1474 77.4647 96.3952 78.5516C99.9561 79.7429 101.904 82.4211 101.986 86.2037C102.108 91.8819 99.2517 96.0862 95.2822 99.7297C93.0474 101.777 90.4431 102.851 87.5779 102.582L87.5823 102.591ZM87.7257 100.247C89.3822 100.408 91.3735 99.7036 93.1257 98.2601C95.3344 96.4384 97.0648 94.2428 98.2996 91.6558C99.2213 89.7167 99.5387 87.6689 99.3735 85.5342C99.2604 84.0733 98.6039 82.9298 97.4778 82.0211C96.0605 80.882 94.3648 80.5559 92.6257 80.369C92.2953 80.3342 91.8779 80.282 91.904 80.8516C91.9562 82.1124 91.1866 82.0255 90.317 81.8342C89.0301 81.5559 87.7084 81.4125 86.4953 82.0298C81.9215 84.3602 78.7867 87.795 78.1563 93.1123C77.8694 95.5471 78.8476 97.2949 80.8867 98.5688C82.7997 99.7601 84.9171 100.086 87.7301 100.247H87.7257Z" fill="black"/>
<path id="Vector_5" d="M78.1562 74.3907C78.0431 75.0429 77.691 75.3473 77.1258 75.282C76.5649 75.2125 76.2562 74.8473 76.3257 74.2603C76.391 73.6777 76.7779 73.3864 77.3388 73.4386C77.9214 73.4951 78.1301 73.9255 78.1605 74.3907H78.1562Z" fill="black"/>
<path id="Vector_6" d="M85.4215 69.6343C85.2997 70.2691 85.1258 70.9343 84.3302 70.9691C83.8476 70.9908 83.5693 70.5604 83.6389 70.0821C83.7215 69.5039 83.9606 68.943 84.6215 68.8474C85.1258 68.7735 85.3867 69.1126 85.4171 69.6343H85.4215Z" fill="black"/>
<path id="Vector_7" d="M88.9692 87.8254C89.7127 87.9298 89.8996 88.6167 90.2387 89.1341C90.517 89.5559 90.7822 90.0037 90.417 90.508C90.3388 90.6167 90.2083 90.708 90.0822 90.7645C89.3866 91.0558 88.9649 90.6819 88.7518 90.095C88.5084 89.4167 87.7431 88.7515 88.5562 87.9733C88.6475 87.8863 88.8127 87.8776 88.9692 87.8254Z" fill="black"/>
<path id="Vector_8" d="M83.8389 89.9384C84.3911 89.9645 84.6433 90.2428 84.6215 90.6167C84.5824 91.3036 84.2563 91.8689 83.4998 91.9341C83.0041 91.9732 82.7302 91.5993 82.6954 91.1254C82.6563 90.5558 83.3519 89.9297 83.8345 89.9384H83.8389Z" fill="black"/>
</g>
</g>
<defs>
<filter id="filter0_d_1534_5140" x="0" y="0" width="173.216" height="176.274" filterUnits="userSpaceOnUse" color-interpolation-filters="sRGB">
<feFlood flood-opacity="0" result="BackgroundImageFix"/>
<feColorMatrix in="SourceAlpha" type="matrix" values="0 0 0 0 0 0 0 0 0 0 0 0 0 0 0 0 0 0 127 0" result="hardAlpha"/>
<feOffset dx="5" dy="5"/>
<feGaussianBlur stdDeviation="15"/>
<feColorMatrix type="matrix" values="0 0 0 0 0 0 0 0 0 0 0 0 0 0 0 0 0 0 0.1 0"/>
<feBlend mode="normal" in2="BackgroundImageFix" result="effect1_dropShadow_1534_5140"/>
<feBlend mode="normal" in="SourceGraphic" in2="effect1_dropShadow_1534_5140" result="shape"/>
</filter>
</defs>
</svg>
