<svg width="32" height="33" viewBox="0 0 32 33" fill="none" xmlns="http://www.w3.org/2000/svg">
<rect y="0.5" width="31.9998" height="31.9998" rx="6.66663" fill="black"/>
<path d="M7.46661 8.67776C7.46661 7.49955 8.42173 6.54443 9.59994 6.54443H22.3999C23.5781 6.54443 24.5332 7.49955 24.5332 8.67776V10.1C24.5332 11.2782 23.5781 12.2333 22.3999 12.2333H7.46661V8.67776Z" fill="white"/>
<path d="M7.46667 15.7886C7.46667 14.6104 8.4218 13.6553 9.6 13.6553H18.1333C19.3115 13.6553 20.2666 14.6104 20.2666 15.7886V17.2108C20.2666 18.389 19.3115 19.3441 18.1333 19.3441H7.46667V15.7886Z" fill="white"/>
<path d="M7.46667 22.8999C7.46667 21.7217 8.4218 20.7666 9.6 20.7666H11.0222C12.2004 20.7666 13.1555 21.7217 13.1555 22.8999V24.3221C13.1555 25.5003 12.2004 26.4555 11.0222 26.4555H7.46667V22.8999Z" fill="white"/>
</svg>
