<svg width="16" height="16" viewBox="0 0 16 16" fill="none" xmlns="http://www.w3.org/2000/svg">
<g clip-path="url(#clip0_61_7356)">
<path d="M1 2.6C1 2.03995 1 1.75992 1.10899 1.54601C1.20487 1.35785 1.35785 1.20487 1.54601 1.10899C1.75992 1 2.03995 1 2.6 1H4.4C4.96005 1 5.24008 1 5.45399 1.10899C5.64215 1.20487 5.79513 1.35785 5.89101 1.54601C6 1.75992 6 2.03995 6 2.6V4.4C6 4.96005 6 5.24008 5.89101 5.45399C5.79513 5.64215 5.64215 5.79513 5.45399 5.89101C5.24008 6 4.96005 6 4.4 6H2.6C2.03995 6 1.75992 6 1.54601 5.89101C1.35785 5.79513 1.20487 5.64215 1.10899 5.45399C1 5.24008 1 4.96005 1 4.4V2.6Z" stroke="#CCCCCC" stroke-width="2"/>
<path d="M1 11.6C1 11.0399 1 10.7599 1.10899 10.546C1.20487 10.3578 1.35785 10.2049 1.54601 10.109C1.75992 10 2.03995 10 2.6 10H4.4C4.96005 10 5.24008 10 5.45399 10.109C5.64215 10.2049 5.79513 10.3578 5.89101 10.546C6 10.7599 6 11.0399 6 11.6V13.4C6 13.9601 6 14.2401 5.89101 14.454C5.79513 14.6422 5.64215 14.7951 5.45399 14.891C5.24008 15 4.96005 15 4.4 15H2.6C2.03995 15 1.75992 15 1.54601 14.891C1.35785 14.7951 1.20487 14.6422 1.10899 14.454C1 14.2401 1 13.9601 1 13.4V11.6Z" stroke="#CCCCCC" stroke-width="2"/>
<path d="M10 2.6C10 2.03995 10 1.75992 10.109 1.54601C10.2049 1.35785 10.3578 1.20487 10.546 1.10899C10.7599 1 11.0399 1 11.6 1H13.4C13.9601 1 14.2401 1 14.454 1.10899C14.6422 1.20487 14.7951 1.35785 14.891 1.54601C15 1.75992 15 2.03995 15 2.6V4.4C15 4.96005 15 5.24008 14.891 5.45399C14.7951 5.64215 14.6422 5.79513 14.454 5.89101C14.2401 6 13.9601 6 13.4 6H11.6C11.0399 6 10.7599 6 10.546 5.89101C10.3578 5.79513 10.2049 5.64215 10.109 5.45399C10 5.24008 10 4.96005 10 4.4V2.6Z" stroke="#CCCCCC" stroke-width="2"/>
<path d="M10 11.6C10 11.0399 10 10.7599 10.109 10.546C10.2049 10.3578 10.3578 10.2049 10.546 10.109C10.7599 10 11.0399 10 11.6 10H13.4C13.9601 10 14.2401 10 14.454 10.109C14.6422 10.2049 14.7951 10.3578 14.891 10.546C15 10.7599 15 11.0399 15 11.6V13.4C15 13.9601 15 14.2401 14.891 14.454C14.7951 14.6422 14.6422 14.7951 14.454 14.891C14.2401 15 13.9601 15 13.4 15H11.6C11.0399 15 10.7599 15 10.546 14.891C10.3578 14.7951 10.2049 14.6422 10.109 14.454C10 14.2401 10 13.9601 10 13.4V11.6Z" stroke="#CCCCCC" stroke-width="2"/>
</g>
<defs>
<clipPath id="clip0_61_7356">
<rect width="16" height="16" fill="white"/>
</clipPath>
</defs>
</svg>
