<svg width="22" height="22" viewBox="0 0 22 22" fill="none" xmlns="http://www.w3.org/2000/svg">
<path fill-rule="evenodd" clip-rule="evenodd" d="M16.207 9.215L10.624 14.799C10.4359 14.9858 10.1816 15.0906 9.9165 15.0906C9.65141 15.0906 9.39708 14.9858 9.209 14.799L5.793 11.383C5.70016 11.2902 5.62651 11.1799 5.57626 11.0586C5.52601 10.9373 5.50015 10.8073 5.50015 10.676C5.50015 10.4108 5.60549 10.1565 5.793 9.969C5.98051 9.78149 6.23482 9.67615 6.5 9.67615C6.76518 9.67615 7.01949 9.78149 7.207 9.969L9.916 12.678L14.793 7.801C14.8858 7.70816 14.9961 7.63451 15.1174 7.58426C15.2387 7.53401 15.3687 7.50815 15.5 7.50815C15.6313 7.50815 15.7613 7.53401 15.8826 7.58426C16.0039 7.63451 16.1142 7.70816 16.207 7.801C16.2998 7.89384 16.3735 8.00407 16.4237 8.12537C16.474 8.24668 16.4998 8.3767 16.4998 8.508C16.4998 8.6393 16.474 8.76932 16.4237 8.89063C16.3735 9.01193 16.2998 9.12216 16.207 9.215M11 0C4.925 0 0 4.925 0 11C0 17.075 4.925 22 11 22C17.075 22 22 17.075 22 11C22 4.925 17.075 0 11 0Z" fill="#423C3F"/>
</svg>
