<svg width="10" height="18" viewBox="0 0 10 18" fill="none" xmlns="http://www.w3.org/2000/svg">
<path fill-rule="evenodd" clip-rule="evenodd" d="M1.6248 17.0999C1.2798 17.0999 0.934801 16.9649 0.664801 16.7099C0.412905 16.4569 0.271484 16.1145 0.271484 15.7574C0.271484 15.4004 0.412905 15.0579 0.664801 14.8049L6.4698 8.99994L0.664801 3.20994C0.412905 2.95694 0.271484 2.61445 0.271484 2.25744C0.271484 1.90042 0.412905 1.55794 0.664801 1.30494C0.917803 1.05304 1.26028 0.911621 1.6173 0.911621C1.97432 0.911621 2.3168 1.05304 2.5698 1.30494L9.3198 8.05494C9.5717 8.30794 9.71312 8.65042 9.71312 9.00744C9.71312 9.36446 9.5717 9.70694 9.3198 9.95994L2.5698 16.7099C2.3148 16.9649 1.9698 17.0999 1.6248 17.0999Z" fill="#A1929A"/>
</svg>
