<svg width="22" height="21" viewBox="0 0 22 21" fill="none" xmlns="http://www.w3.org/2000/svg">
<path fill-rule="evenodd" clip-rule="evenodd" d="M12.1542 0.926961L14.4812 5.64196C14.6682 6.02096 15.0302 6.28396 15.4492 6.34496L20.6522 7.10096C21.7062 7.25396 22.1282 8.55096 21.3642 9.29396L17.5992 12.964C17.45 13.1095 17.3383 13.2891 17.2739 13.4873C17.2094 13.6856 17.1941 13.8965 17.2292 14.102L18.1182 19.284C18.2982 20.335 17.1962 21.135 16.2532 20.64L11.5992 18.193C11.4148 18.0959 11.2095 18.0452 11.0012 18.0452C10.7928 18.0452 10.5876 18.0959 10.4032 18.193L5.74917 20.64C4.80517 21.135 3.70317 20.335 3.88317 19.284L4.77217 14.102C4.80718 13.8965 4.7918 13.6856 4.72735 13.4874C4.66291 13.2892 4.55132 13.1096 4.40217 12.964L0.637172 9.29396C-0.125828 8.55096 0.295172 7.25396 1.35017 7.10096L6.55217 6.34496C6.97117 6.28396 7.33417 6.02096 7.52117 5.64196L9.84717 0.926961C10.3192 -0.029039 11.6822 -0.029039 12.1542 0.926961Z" fill="#AEAEAE"/>
</svg>
