<svg width="112" height="85" viewBox="0 0 112 85" fill="none" xmlns="http://www.w3.org/2000/svg">
<g id="error">
<path id="Vector" d="M57.552 0.236579C60.8867 1.03657 60.6042 4.67131 60.4042 7.17564C60.2042 9.67996 59.1041 16.6234 57.9215 19.319C56.7389 22.0146 57.1303 23.2581 60.4998 23.3146C63.8693 23.3711 76.7866 27.2233 78.9039 26.645C81.0213 26.0668 95.869 15.8495 100.304 17.7755C104.738 19.7016 105.699 38.1101 107.243 40.571C108.786 43.0318 112.447 48.4274 110.521 55.5621C108.595 62.6968 105.125 67.175 97.4125 72.5489C89.6995 77.9228 80.2692 82.3575 60.4085 84.4792C40.5478 86.6009 12.7872 80.114 6.03946 76.7054C-0.708296 73.2967 0.835167 65.8316 1.80037 61.5621C2.76558 57.2925 2.9569 43.2231 11.0525 35.7058C19.148 28.1885 25.5567 23.8407 28.7175 20.9059C31.8784 17.9712 49.5129 -1.69384 57.5607 0.236579H57.552Z" fill="white"/>
<g id="Group">
<path id="Vector_2" d="M53.1347 24.345C53.6564 24.9319 54.413 25.1363 55.226 25.1102C63.3564 24.8406 70.9519 27.258 78.5258 29.771C78.6649 29.8145 78.7997 29.8623 78.9345 29.9145C79.8997 30.2884 80.8388 30.684 81.2606 29.1841C81.3997 28.6841 81.9823 28.4928 82.4431 28.2884C85.904 26.758 89.0518 24.6885 92.2474 22.6928C93.5387 21.8841 94.8647 21.145 96.3517 20.7407C98.3604 20.1929 99.5691 20.7233 100.347 22.6407C101.06 24.3928 101.382 26.2537 101.773 28.0971C102.46 31.3406 102.886 34.6449 103.956 37.8057C104.108 38.2535 104.099 38.7622 103.656 38.9492C102.447 39.4666 102.991 40.1622 103.404 40.8361C104.086 41.9448 104.782 43.0491 105.512 44.1274C109.539 50.0665 108.825 57.2446 104.869 62.6228C103.752 64.1402 102.604 65.6576 101.121 66.8315C94.43 72.1228 87.3083 76.6401 78.9475 78.8662C77.404 79.2749 75.8345 79.5444 74.2389 79.6227C73.4432 79.6618 72.7519 79.5009 72.6215 78.5749C72.4954 77.6749 73.0867 77.2401 73.8476 77.0575C76.5954 76.3966 79.3432 75.7271 81.9736 74.688C88.0822 72.2836 93.63 68.8793 98.8213 64.8968C100.613 63.5229 102.117 61.8316 103.321 59.9185C106.143 55.4273 106.391 50.8186 103.76 46.1491C103.086 44.9491 102.256 43.8404 101.604 42.6318C100.747 41.0492 99.7995 39.4622 100.669 37.5231C100.83 37.1666 100.739 36.6622 100.66 36.2449C99.9256 32.4058 99.2125 28.5623 98.3995 24.7363C97.9734 22.7233 97.6299 22.5885 95.7517 23.4624C94.7039 23.9493 93.7169 24.5667 92.7344 25.1754C90.2083 26.7363 87.7387 28.3884 85.0431 29.6623C84.5431 29.8971 84.2127 30.058 84.2822 30.9058C84.4431 32.8275 82.7431 33.8666 80.8779 33.2058C75.0737 31.1493 69.2346 29.2145 63.1607 28.0884C61.1607 27.7189 59.1608 27.4319 57.126 27.4145C56.3999 27.4058 55.6782 27.3232 54.9565 27.3363C52.6521 27.3841 51.6348 25.7145 50.6217 24.0798C50.3087 23.5754 50.6391 23.0667 51.1 22.7798C52.1652 22.1102 52.5565 21.0059 53.013 19.9494C54.4434 16.6233 55.8825 13.2929 56.3651 9.65817C56.4782 8.80165 56.5825 7.92775 56.5564 7.06689C56.5129 5.86256 56.1086 5.59299 54.8912 5.67995C54.2912 5.71908 53.7738 5.97994 53.2608 6.23646C52.3434 6.68863 51.5434 7.31907 50.7956 8.00601C47.6391 10.8973 44.3435 13.6147 40.9523 16.2233C37.074 19.2059 33.7827 22.7537 30.8132 26.6189C30.035 27.6319 29.2654 28.5319 27.7959 28.2449C27.2481 28.1406 26.8307 28.5232 26.435 28.8275C19.4481 34.1101 13.7568 40.4709 10.1525 48.5448C9.20037 50.6795 8.72649 52.9578 8.43518 55.2577C7.97867 58.849 7.61344 62.4533 7.22649 66.0533C7.16562 66.6272 7.17866 67.2098 7.16561 67.788C7.12213 69.6489 7.93518 70.9619 9.62212 71.775C14.2047 73.9793 18.8525 75.9662 23.9829 76.5271C28.235 76.9923 32.4393 77.7488 36.561 78.9184C37.0436 79.0575 37.6566 79.0401 37.7393 79.6705C37.8392 80.4531 37.1218 80.4966 36.6218 80.7488C35.4871 81.3183 34.3219 81.5836 33.061 81.2879C28.7524 80.2792 24.322 79.9966 19.9916 79.114C15.6177 78.2227 11.596 76.3966 7.66997 74.3575C5.22217 73.0836 3.97868 71.001 4.00477 68.175C4.04824 63.7359 4.93954 59.3968 5.52649 55.0229C5.91344 52.1447 6.61348 49.3317 7.90477 46.7013C11.9569 38.4535 17.8959 31.8449 25.4132 26.6189C25.7698 26.371 26.1437 26.0841 26.5524 26.0015C28.6306 25.5797 29.8915 24.1363 31.0915 22.5624C33.7523 19.0711 37.1088 16.2972 40.5435 13.6277C43.4044 11.406 46.2218 9.13209 48.9261 6.71472C50.1174 5.64952 51.3782 4.69735 52.8564 4.0278C53.8217 3.59302 54.8086 3.48432 55.826 3.57127C57.4651 3.71475 58.2564 4.46257 58.5999 6.11473C58.9303 7.71471 58.6695 9.28861 58.3825 10.8582C57.5043 15.6668 55.626 20.0885 53.1434 24.3493L53.1347 24.345Z" fill="black"/>
<path id="Vector_3" d="M53.7303 79.5575C47.6434 79.6575 41.3174 78.714 35.3131 76.0271C31.9393 74.5141 29.0045 72.4706 27.0958 69.2054C25.7176 66.8489 25.948 64.5098 27.7002 62.3794C28.7262 61.1316 29.9697 60.136 31.3349 59.3055C32.6958 58.4795 34.0871 57.6968 35.5218 57.0055C38.4522 55.5882 41.3783 54.1795 44.2653 52.6708C49.5087 49.9404 55.1434 48.3578 61.1303 48.2187C65.7868 48.11 70.3911 48.2187 74.9041 49.5795C78.7736 50.7404 82.2518 52.5534 85.4257 55.0621C90.0256 58.6968 89.7996 65.4489 86.2083 69.1315C83.6388 71.7706 80.6866 73.8054 77.2605 75.1358C69.8345 78.0184 62.1868 79.7792 53.726 79.5618L53.7303 79.5575ZM53.2869 76.6793C61.7173 76.9836 70.5215 74.6793 76.5388 72.188C79.4606 70.9793 81.991 69.2272 84.1518 66.9228C86.404 64.5229 87.1517 59.7185 83.3996 56.9707C82.817 56.5447 82.2562 56.0795 81.6518 55.6925C76.7215 52.536 71.2867 50.9882 65.4694 50.6839C64.5694 50.636 63.5824 50.3404 63.2738 51.7012C63.1651 52.1708 62.5781 52.1447 62.1433 52.1317C61.2781 52.1013 60.4085 52.0534 59.5433 51.9926C56.7868 51.7969 54.0173 51.7969 51.3695 52.6447C45.0826 54.6577 39.1001 57.3838 33.3784 60.6707C31.9306 61.5011 30.6263 62.5272 29.535 63.8185C28.8263 64.6576 28.5958 65.575 28.7436 66.6402C28.9002 67.7794 29.5871 68.6272 30.3045 69.4315C32.1219 71.4793 34.4175 72.801 36.9306 73.8358C42.3175 76.0488 47.9522 76.7227 53.2869 76.6793Z" fill="black"/>
<path id="Vector_4" d="M54.8477 45.7274C53.9172 45.6621 53.4912 44.7839 53.9955 44.1274C54.2912 43.7404 54.7346 43.4578 55.1389 43.1709C56.2476 42.3796 57.3737 41.6144 58.4824 40.8231C59.0563 40.4144 59.6389 40.1579 60.1737 40.8274C60.6476 41.4231 60.2911 41.897 59.8433 42.3144C58.5172 43.5361 56.9955 44.4883 55.5129 45.4926C55.2868 45.6448 54.9868 45.6795 54.8433 45.7274H54.8477Z" fill="black"/>
<path id="Vector_5" d="M71.1128 43.0274C71.0041 43.4187 70.9432 43.7752 70.804 44.0969C70.5736 44.623 70.291 45.2013 69.5867 45.0665C68.9128 44.9361 68.6954 44.41 68.8475 43.7622C68.9345 43.3926 68.9345 43.0752 68.6345 42.7926C68.0606 42.2535 67.9345 41.6665 68.7301 41.2796C69.5606 40.8709 70.7997 41.4231 71.0388 42.2317C71.1171 42.497 71.0954 42.7882 71.1128 43.0317V43.0274Z" fill="black"/>
<path id="Vector_6" d="M63.4737 64.1577C62.9216 63.9924 62.5433 63.6055 62.7781 63.049C63.2346 61.9925 63.9302 61.0664 64.7607 60.262C65.0476 59.9838 65.4215 60.0186 65.7476 60.2534C65.9911 60.4316 66.2085 60.7099 66.1042 60.9838C65.6477 62.2099 64.9085 63.249 63.8911 64.0794C63.7955 64.1577 63.6172 64.1316 63.4737 64.1577Z" fill="black"/>
<path id="Vector_7" d="M54.9955 63.4968C54.5824 63.475 54.3172 63.2316 54.2129 62.862C54.0607 62.3272 55.3346 59.962 55.8998 59.7142C56.3998 59.4968 56.752 59.7316 56.9129 60.1968C57.0998 60.7316 55.9433 63.175 55.4172 63.4272C55.2911 63.4837 55.1389 63.4794 54.9955 63.5011V63.4968Z" fill="black"/>
</g>
</g>
</svg>
