<svg width="204" height="166" viewBox="0 0 204 166" fill="none" xmlns="http://www.w3.org/2000/svg">
<g id="focus" filter="url(#filter0_d_1537_3019)">
<path id="Vector" d="M85.6716 37.3484C89.0933 36.6875 101.48 40.5571 102.697 39.5962C103.915 38.6353 109.045 31.7354 112.893 30.7745C116.741 29.8137 125.406 27.8876 125.245 31.7354C125.084 35.5832 120.593 50.9526 119.789 53.2961C118.984 55.6395 124.541 58.3656 126.254 61.7351C127.967 65.1046 127.649 72.548 130.536 72.3567C133.423 72.1654 153.019 70.4829 158.301 71.6437C163.584 72.8046 168.875 73.835 168.558 76.9306C168.24 80.0262 162.51 86.5218 160.48 91.4522C158.449 96.3826 151.875 111.143 151.232 115.956C150.588 120.769 147.61 125.421 144.367 125.582C141.123 125.743 135.228 124.139 127.267 125.582C119.306 127.026 70.8587 131.356 63.4805 130.556C56.1023 129.756 42.3068 127.656 41.0198 124.213C39.7329 120.769 43.4415 117.122 43.8372 114.13C44.2328 111.139 34.7634 108.882 31.559 102.074C28.3547 95.2652 21.4548 88.3566 27.2287 69.7524C33.0025 51.1483 44.2328 42.9657 49.5284 41.6831C54.824 40.4005 60.9196 37.0527 63.9674 34.1571C67.0152 31.2615 81.1194 22.9181 83.3716 25.4833C85.6237 28.0485 82.3542 37.9962 85.6716 37.3527V37.3484Z" fill="white"/>
<path id="Vector 2" d="M153 75C151.4 75 116 77.6667 98.5 79C96.5 79.1523 97 84.5 96 86.5C95.2 88.1 88.6667 108.167 85.5 118C82.8333 118.833 77 120.5 75 120.5C72.5 120.5 68 125.5 70 126C72 126.5 90.5 123 94.5 122.5C98.5 122 122 122 129 120.5C136 119 142.5 121 144.5 120.5C146.5 120 147.5 111 148 108C148.5 105 155 94.5 156 92C157 89.5 163 80.5 163 79C163 77.5 155 75 153 75Z" fill="#ECAFCB"/>
<g id="Group">
<path id="Vector_2" d="M75.176 117.787C75.689 119.643 75.7064 119.691 77.2455 119.213C78.9673 118.678 80.7064 118.152 82.302 117.274C82.5542 117.134 82.8237 116.887 83.0672 116.908C85.3759 117.113 85.4368 115.548 85.6411 113.895C86.0498 110.574 87.1368 107.417 88.302 104.291C88.602 103.487 88.8715 102.669 89.1541 101.865C88.5715 101.335 87.9846 101.609 87.4541 101.622C83.102 101.713 78.7586 101.635 74.4847 100.691C70.65 99.8434 67.3152 98.0347 64.5109 95.2608C62.6066 93.3782 61.5805 91.1652 61.8153 88.4391C61.8631 87.8609 61.9066 87.2826 61.9196 86.7044C62.0066 81.7479 64.5109 78.4653 68.8804 76.3436C74.5717 73.5828 80.4716 73.5915 86.4889 74.7871C87.3454 74.9567 88.1541 75.3045 88.8802 75.7958C90.4411 76.8479 90.7324 78.6349 89.6454 80.1392C89.3063 80.6044 88.8933 80.8175 88.3411 80.6262C87.8889 80.4696 87.5454 80.0827 87.6715 79.6392C88.1498 77.9566 87.0237 77.6218 85.8324 77.4132C80.2977 76.4523 74.8673 76.5175 69.763 79.2871C65.8935 81.3827 63.8805 86.2174 65.1457 90.4304C65.5109 91.6391 66.35 92.5608 67.2587 93.4086C70.063 96.0217 73.4325 97.4347 77.189 97.9043C80.276 98.2912 83.3846 98.4869 86.5063 98.4825C89.1324 98.4825 91.0672 97.1043 91.9628 94.4086C93.241 90.5609 94.3497 86.6609 95.3584 82.7348C95.7106 81.3696 96.6801 80.1566 96.3975 78.6088C96.328 78.2349 96.7932 78.0523 97.1367 77.9218C98.1584 77.5349 99.2019 77.3088 100.297 77.2088C111.841 76.1523 123.432 75.8306 134.993 75.0262C139.254 74.7306 143.51 74.3349 147.762 73.9436C151.78 73.5697 155.71 73.7001 159.475 75.4001C160.588 75.9045 161.814 76.1262 163.032 76.3523C165.423 76.7958 165.893 77.9479 164.536 80.0262C161.084 85.3044 158.08 90.8435 155.014 96.3434C152.793 100.33 150.897 104.478 149.493 108.839C148.467 112.022 148.393 113.748 147.923 115.956C147.032 117.452 147.397 118.469 146.641 120.034C145.68 122.034 144.667 122.147 141.188 122.139C139.21 121.074 136.184 121.195 134.397 121.361C131.154 121.661 127.915 122.03 124.689 122.474C120.158 123.095 115.615 123.374 111.041 123.347C105.828 123.317 100.611 123.347 95.3975 123.347C94.4236 123.347 93.615 123.287 93.6019 124.774C93.5889 126.117 92.2976 126.082 91.2628 126.065C86.8411 125.978 82.4281 126.147 78.0108 126.317C76.7195 126.365 75.4108 126.23 74.2412 127.039C73.9195 127.26 73.4065 127.23 72.976 127.265C68.7804 127.595 64.5848 127.834 60.4414 126.817C58.5457 126.352 56.5414 126.439 54.7066 125.678C54.1023 125.426 53.7762 125.917 53.3719 126.174C52.4023 126.787 51.4806 127.308 50.5241 126.117C50.1415 125.643 49.4632 125.678 48.911 125.569C48.098 125.413 47.4198 125.056 46.7763 124.561C46.1763 124.1 45.7024 123.404 44.7285 123.717C44.2676 123.865 43.772 123.439 43.8415 123.004C43.9937 122.104 43.7241 120.956 44.4198 120.352C45.6719 119.265 46.3111 117.8 47.2024 116.504C49.9763 112.469 53.5284 109.365 57.9153 107.222C60.1892 106.109 62.4892 105.039 64.7892 103.978C65.5761 103.613 66.3804 103.278 67.2022 103C70.65 101.843 73.7369 102.2 76.3021 105.069C77.6977 106.635 79.2716 108.043 80.6673 109.608C81.7281 110.795 82.6672 112.095 82.8368 113.774C83.0368 115.774 82.0977 117.161 80.1325 117.561C79.2194 117.748 78.2629 117.734 77.3238 117.778C76.6064 117.808 75.889 117.782 75.1673 117.782L75.176 117.787ZM161.158 79.1392C154.623 76.3784 154.41 76.3045 147.94 76.7045C144.184 76.9392 140.441 77.4001 136.68 77.6045C124.745 78.2523 112.81 78.8262 100.871 79.4262C98.6714 79.5349 98.6323 79.5218 98.0453 81.6044C97.1671 84.7392 96.441 87.9217 95.4801 91.0304C94.6541 93.7086 93.9715 96.4304 92.9367 99.0564C90.8672 104.3 88.5933 109.495 87.9498 115.191C87.7889 116.626 87.6063 118.082 86.9976 119.413C86.3976 120.73 85.5802 120.961 84.489 120.03C84.0281 119.639 83.7411 119.5 83.2064 119.769C81.3281 120.717 79.3629 121.456 77.3499 122.069C77.0064 122.174 76.6108 122.339 76.7021 122.782C76.7977 123.243 77.2369 123.187 77.589 123.174C79.9064 123.095 82.2238 123.004 84.5368 122.921C84.9933 122.904 85.402 122.782 85.6802 122.408C86.415 121.426 87.5541 121.343 88.602 121.178C90.2454 120.921 91.9063 120.761 93.5671 120.669C99.2845 120.352 105.006 120.387 110.732 120.369C115.084 120.356 119.41 120.052 123.723 119.443C127.806 118.865 131.884 118.204 136.023 118.061C137.741 118 140.48 118.152 142.032 118.387C142.101 118.395 143.758 118.421 144.006 118.465C145.693 113.63 144.623 111.9 146.31 108.2C148.067 102.726 150.571 97.5956 153.423 92.6217C155.975 88.1696 158.532 83.7174 161.153 79.1479L161.158 79.1392ZM72.7369 120.452C72.5456 119.313 71.8326 118.478 71.2587 117.561C70.6978 116.661 69.75 115.769 70.5282 114.626C71.3847 113.365 72.6239 114.021 73.7064 114.308C75.2543 114.717 76.7934 115.117 78.4108 114.926C79.9586 114.743 80.1933 114.321 79.4803 112.965C78.7281 111.535 77.5542 110.435 76.4586 109.278C74.5499 107.256 74.2064 107.261 71.876 108.826C66.35 112.543 61.8066 117.308 57.4675 122.287C57.324 122.452 57.2414 122.647 57.4675 123.008C59.2501 123.352 61.1501 123.743 63.0587 124.078C64.2761 124.291 65.4152 124.391 66.4196 123.252C67.1239 122.456 68.3239 122.265 69.3239 121.839C70.45 121.361 71.6978 121.178 72.7369 120.452ZM72.3239 105.4C70.0587 104.848 69.1891 104.869 67.1239 105.735C64.5891 106.8 62.1066 107.987 59.5849 109.082C54.4893 111.3 50.6632 114.913 47.8024 119.621C46.8632 121.165 47.0632 122.139 48.7067 122.874C49.9458 123.426 51.1632 123.661 52.598 122.874C53.7197 122.261 54.5849 121.513 55.3849 120.595C59.2457 116.174 63.0979 111.748 67.9674 108.365C69.3195 107.426 70.6891 106.509 72.3282 105.395L72.3239 105.4Z" fill="black"/>
<path id="Vector_3" d="M118.597 35.1223C114.141 35.9484 110.85 37.7745 108.528 41.2005C108.115 41.8135 107.984 42.5135 107.954 43.2614C107.841 45.7918 107.232 46.3222 104.715 45.9048C101.284 45.3396 97.867 44.7135 94.454 44.044C89.9714 43.1657 85.4845 42.4092 80.8846 42.4701C78.2585 42.5048 77.5542 41.5222 78.1063 38.9005C78.3281 37.8397 78.6324 36.7919 78.9542 35.7571C79.2716 34.7223 79.6542 33.7049 80.0063 32.7006C79.4281 32.1136 78.8846 32.4702 78.3759 32.6615C71.6542 35.2049 65.6195 38.8484 60.4848 43.9179C60.1239 44.2744 59.8761 44.6961 59.6109 45.1309C58.9457 46.2309 57.9022 46.6439 56.7022 46.1657C56.0196 45.8918 55.5761 46.0961 55.1022 46.3831C51.2675 48.7178 47.3067 50.8482 43.8023 53.6917C40.598 56.2917 38.5241 59.696 37.3285 63.5481C35.5894 69.1437 33.8111 74.7436 32.5981 80.4827C31.6025 85.1957 31.9242 89.8435 33.7416 94.3565C34.6198 96.5347 35.7937 98.4956 37.4328 100.191C39.5415 102.369 41.9371 104.3 43.411 107.039C43.7328 107.639 44.3893 107.878 44.9197 108.248C45.3371 108.539 45.8241 108.865 45.4371 109.465C45.1328 109.939 44.6762 109.765 44.2893 109.543C42.5937 108.582 40.7328 107.843 39.2763 106.53C37.3415 104.791 35.4155 103.004 33.8024 100.948C30.759 97.0652 29.2807 92.5565 28.9373 87.6913C28.6677 83.8349 29.1807 80.0219 30.2546 76.3045C31.5025 71.9958 32.7242 67.6741 34.0677 63.3916C36.0546 57.0438 39.8763 52.1091 45.7197 48.8309C48.1806 47.4483 50.6805 46.1265 53.1588 44.7787C53.9935 44.3266 54.8935 43.8483 55.8066 43.87C57.4631 43.9135 58.4196 42.9657 59.4457 41.9092C64.4934 36.731 70.5716 33.1615 77.2716 30.5702C78.3542 30.1528 79.4629 29.7832 80.6281 29.7224C82.202 29.6441 82.9498 30.3919 82.7846 31.9615C82.702 32.7397 82.4107 33.5049 82.1541 34.2527C81.5628 35.9527 80.8933 37.631 80.6889 39.3136C80.9063 39.7788 81.2194 39.7788 81.4846 39.7657C87.2628 39.4918 92.8584 40.8222 98.4931 41.7527C100.28 42.0483 102.058 42.3831 103.837 42.7135C104.489 42.8353 104.793 42.7135 105.084 41.9744C107.406 36.1006 112.184 33.431 118.08 32.4745C120.667 32.0528 122.084 33.6441 121.28 36.1397C119.445 41.8483 118.284 47.8135 115.171 53.0526C114.576 54.0525 114.663 54.5004 115.636 55.2525C120.962 59.3612 123.589 65.0481 124.762 71.5132C124.828 71.8654 124.849 72.2393 124.793 72.5915C124.662 73.4045 124.132 73.8915 123.328 73.9524C122.615 74.0045 122.045 73.648 121.802 72.9654C121.632 72.4958 121.615 71.9785 121.519 71.4828C120.506 66.4785 118.428 62.0003 114.871 58.2916C113.989 57.3699 113.089 56.5351 111.515 56.7264C110.28 56.8786 109.736 55.5438 110.454 54.396C110.91 53.6656 111.541 53.0395 112.002 52.3047C113.08 50.583 114.002 48.7613 114.671 46.8483C115.984 43.1005 117.193 39.3179 118.593 35.1049L118.597 35.1223Z" fill="black"/>
<path id="Vector_4" d="M85.4237 89.8304C85.8106 88.8261 86.0063 87.6305 86.0019 86.3913C86.0019 85.8305 86.3411 85.4131 86.928 85.3827C87.4976 85.3522 87.7932 85.7261 88.015 86.2479C88.8149 88.1131 87.9323 89.6 86.9758 91.0609C86.728 91.4391 86.2845 91.5826 85.8324 91.3174C85.3063 91.0087 85.2976 90.513 85.4237 89.8304Z" fill="black"/>
<path id="Vector_5" d="M81.0889 84.6088C80.615 85.5653 79.9542 86.587 78.9629 87.3435C78.6542 87.5783 78.2759 87.5131 77.9542 87.2783C77.5542 86.9913 77.3672 86.5522 77.5499 86.1392C78.0238 85.074 78.6846 84.1001 79.6498 83.4392C80.3194 82.9827 81.1585 83.6044 81.0889 84.6044V84.6088Z" fill="black"/>
<path id="Vector_6" d="M89.6845 70.0437C89.8106 69.5611 89.9627 68.7915 90.2193 68.0524C90.3975 67.535 90.8279 67.2742 91.4105 67.4394C91.8845 67.5742 92.1497 67.9524 92.1018 68.4002C92.0192 69.1741 91.8497 69.9437 91.6758 70.7046C91.5323 71.3306 91.1497 71.7393 90.4584 71.6219C89.7366 71.5046 89.6236 70.9524 89.6845 70.0393V70.0437Z" fill="black"/>
<path id="Vector_7" d="M85.6672 69.3132C85.6889 69.8437 85.5063 70.2132 85.0324 70.3567C84.5542 70.5002 84.1455 70.2915 83.9889 69.8524C83.7281 69.1176 83.502 68.3611 83.3759 67.5959C83.302 67.135 83.6542 66.8089 84.1324 66.7176C84.515 66.6437 84.8324 66.7785 85.0498 67.1133C85.4933 67.8002 85.4541 68.6219 85.6715 69.3176L85.6672 69.3132Z" fill="black"/>
<path id="Vector_8" d="M122.423 104.726C120.38 104.709 118.376 104.526 116.493 103.643C114.906 102.9 114.036 101.743 114.063 99.9173C114.084 98.4391 114.328 97.0173 115.05 95.7434C115.828 94.3695 116.584 92.9304 117.645 91.7869C118.963 90.3652 120.832 89.7131 122.758 89.8304C125.345 89.987 127.954 90.187 130.419 91.1391C130.958 91.3478 131.489 91.5739 132.019 91.8043C135.688 93.4261 135.793 96.7086 133.893 99.3043C131.084 103.143 127.128 104.787 122.423 104.722V104.726ZM122.367 102.035C123.089 102.035 123.823 102.13 124.528 102.017C127.406 101.556 129.906 100.352 131.658 97.9478C132.967 96.1565 132.615 94.9565 130.597 94.0304C127.771 92.7304 124.758 92.5348 121.71 92.5869C121.436 92.5913 121.115 92.6609 120.893 92.8174C118.654 94.4174 116.902 96.3478 116.589 99.2477C116.458 100.435 116.984 101.143 118.102 101.526C119.493 102.004 120.923 102.091 122.367 102.039V102.035Z" fill="black"/>
<path id="Vector_9" d="M120.98 95.3869C120.945 94.7087 120.919 94.1435 121.541 93.987C122.293 93.8 122.536 94.3869 122.697 94.9565C122.871 95.5782 123.036 96.2087 123.115 96.8434C123.184 97.4043 122.889 97.8304 122.319 97.9391C121.706 98.0565 121.358 97.6521 121.232 97.1347C121.08 96.513 121.045 95.8608 120.98 95.3826V95.3869Z" fill="black"/>
<path id="Vector_10" d="M127.267 95.8739C127.215 96.5217 126.941 97.013 126.262 97.0695C125.68 97.1173 125.328 96.7391 125.249 96.1739C125.162 95.5348 125.802 94.9608 126.489 95.0261C127.006 95.0739 127.232 95.3913 127.262 95.8695L127.267 95.8739Z" fill="black"/>
</g>
</g>
<defs>
<filter id="filter0_d_1537_3019" x="0" y="0" width="203.571" height="165.654" filterUnits="userSpaceOnUse" color-interpolation-filters="sRGB">
<feFlood flood-opacity="0" result="BackgroundImageFix"/>
<feColorMatrix in="SourceAlpha" type="matrix" values="0 0 0 0 0 0 0 0 0 0 0 0 0 0 0 0 0 0 127 0" result="hardAlpha"/>
<feOffset dx="5" dy="5"/>
<feGaussianBlur stdDeviation="15"/>
<feColorMatrix type="matrix" values="0 0 0 0 0 0 0 0 0 0 0 0 0 0 0 0 0 0 0.1 0"/>
<feBlend mode="normal" in2="BackgroundImageFix" result="effect1_dropShadow_1537_3019"/>
<feBlend mode="normal" in="SourceGraphic" in2="effect1_dropShadow_1537_3019" result="shape"/>
</filter>
</defs>
</svg>
