<svg width="217" height="171" viewBox="0 0 217 171" fill="none" xmlns="http://www.w3.org/2000/svg">
<g id="heart" filter="url(#filter0_d_1534_5199)">
<path id="Vector" d="M66.6416 58.4694C65.0633 60.7389 64.4025 73.2214 64.7242 75.591C65.0459 77.9605 61.9155 84.9213 60.9938 86.7126C60.0721 88.5039 52.7026 80.9431 49.7244 78.3605C46.7461 75.7779 32.3811 68.9389 27.7333 76.5345C23.0855 84.13 25.4724 93.0778 26.8637 95.8647C28.255 98.6516 34.2854 107.799 36.2419 110.582C38.1984 113.365 32.2332 118.734 34.8202 125.099C37.4071 131.464 43.1549 133.451 49.7287 133.851C56.3026 134.251 65.7851 128.877 69.0981 128.877C72.4111 128.877 78.3936 135.638 88.3283 135.838C98.263 136.038 119.541 124.699 123.719 120.525C127.897 116.351 135.706 106.012 136.771 94.8734C137.837 83.7344 137.476 74.5823 134.576 70.4084C131.676 66.2346 125.75 62.0563 124.832 60.465C123.915 58.8738 119.106 41.3739 117.237 40.1783C115.367 38.9827 113.459 38.987 111.328 41.7696C109.198 44.5522 105.706 55.6912 103.676 56.6868C101.646 57.6825 82.9545 65.0389 81.1632 64.4433C79.3719 63.8476 69.8242 53.9042 66.6416 58.4781V58.4694Z" fill="white"/>
<path id="Vector_2" d="M138.437 51.3172C136.458 48.6564 131.08 42.4347 136.05 35.7348C141.019 29.0349 145.415 25.2566 153.562 25.0566C161.71 24.8566 167.871 25.0827 170.658 27.4566C173.445 29.8305 182.193 38.5391 181.993 44.826C181.793 51.1129 183.184 59.8606 173.045 64.2388C162.906 68.6171 153.123 65.0127 149.776 63.2432C146.428 61.4737 137.68 70.204 134.58 67.2214C131.48 64.2388 142.25 56.4389 138.441 51.3216L138.437 51.3172Z" fill="white"/>
<path id="Vector 4" d="M162.5 37C161.3 37 158.667 40.3333 157.5 42C158.5 39 154.5 37 153 37C151.8 37 151.5 42.3333 151.5 45C152 47.1667 153.7 51.6 156.5 52C159.3 52.4 161.667 47.5 162.5 45C163 42.3333 163.7 37 162.5 37Z" fill="#ECAFCB"/>
<g id="Group">
<path id="Vector_3" d="M61.4589 92.8994C62.585 89.1081 63.8719 85.4995 65.6371 82.0778C66.3676 80.6604 67.3849 79.3647 67.9719 77.9256C68.5284 76.5561 67.2719 75.1561 67.2284 73.6518C67.1458 70.6127 66.8632 67.5779 66.7154 64.5388C66.5762 61.6389 67.7632 60.7649 70.5849 61.6388C73.4936 62.5388 75.8892 64.2475 78.024 66.3779C79.55 67.904 79.5413 67.8475 81.4544 66.9431C86.0543 64.7693 90.9369 63.3823 95.789 61.9214C98.7672 61.0258 101.772 60.178 104.876 59.8084C105.906 59.6867 106.311 59.2476 106.515 58.2171C107.411 53.6911 109.337 49.5564 111.654 45.6042C112.293 44.5129 112.928 43.1695 114.515 43.2782C116.093 43.3869 116.632 44.7434 117.045 45.9477C118.428 49.9868 119.702 54.065 120.997 58.1345C121.245 58.9084 121.158 59.7215 121.006 60.5041C120.884 61.1302 120.476 61.5389 119.78 61.4954C119.071 61.4519 118.776 60.9606 118.711 60.3345C118.215 55.6085 116.211 51.2998 114.932 46.7955C114.854 46.526 114.663 46.2912 114.515 46.026C113.754 46.052 113.606 46.6868 113.354 47.1433C111.176 51.0911 109.298 55.1476 108.641 59.6737C108.393 61.391 108.171 61.6084 106.254 61.9084C99.4933 62.9649 93.0499 65.1519 86.5934 67.304C84.5935 67.9692 82.663 68.791 80.837 69.8388C79.7979 70.4344 78.9544 70.3431 78.1153 69.4822C77.1066 68.4475 76.0588 67.4388 74.9849 66.4692C73.5153 65.1388 71.8153 64.178 69.9284 63.5867C68.8414 63.2475 68.5545 63.4345 68.6371 64.5345C68.8806 67.7127 68.8241 70.9083 69.2806 74.0735C69.4545 75.2735 69.6153 76.4561 71.324 76.1909C71.5936 76.1474 71.8979 76.2909 71.9979 76.6213C72.1197 77.0083 72.0458 77.3865 71.6849 77.5604C69.2284 78.7387 68.4023 81.1691 67.3675 83.356C64.1111 90.2386 61.9937 97.4081 62.2589 105.134C62.3241 106.986 62.6763 108.712 63.5415 110.347C65.2328 113.556 67.1675 116.604 69.3414 119.503C69.9545 120.321 70.1023 121.364 70.7979 122.138C71.3718 122.782 71.7501 123.612 72.4849 124.108C76.0544 126.503 79.8326 128.451 84.0891 129.334C85.0717 129.538 85.8804 129.595 86.5152 128.551C86.9847 127.777 87.8412 127.716 88.2195 128.603C88.6586 129.625 89.2673 129.386 89.9673 129.151C91.6977 128.569 93.2151 127.569 94.8151 126.721C96.4281 125.869 96.4368 125.877 97.3542 127.782C103.211 124.977 109.641 123.356 115.032 119.586C123.654 113.56 129.184 105.421 131.063 94.9603C131.806 90.8125 132.054 86.6212 131.945 82.4125C131.897 80.5734 131.519 78.83 130.654 77.1909C129.571 75.1431 128.506 73.0822 127.223 71.1474C125.906 69.1649 124.258 67.617 121.91 66.8997C121.163 66.6692 120.476 66.2214 119.789 65.8258C119.241 65.5084 118.928 65.0214 119.224 64.3693C119.502 63.7562 120.01 63.5823 120.663 63.7084C123.902 64.3432 126.728 65.7345 128.697 68.4518C130.828 71.3953 132.467 74.6257 133.828 77.9909C134.184 78.8691 134.354 79.8039 134.41 80.7474C134.836 88.0386 134.523 95.2907 131.884 102.165C127.758 112.912 120.645 120.96 109.78 125.369C105.285 127.195 100.819 129.09 96.3238 130.903C94.8499 131.499 93.3151 131.934 91.8021 132.425C91.463 132.534 90.989 132.751 90.763 132.612C89.1369 131.608 87.3673 132.251 85.6804 132.103C82.7457 131.838 80.0022 130.982 77.3761 129.721C74.2718 128.225 71.0284 126.943 68.7067 124.19C67.9545 123.295 67.1284 122.49 67.1241 121.212C67.1241 120.517 66.6589 120.008 66.3241 119.46C65.2241 117.673 64.1328 115.873 62.9719 114.125C60.598 110.551 59.5459 106.656 59.9459 102.378C60.0894 100.865 60.0459 99.295 60.4459 97.8515C60.9024 96.2124 60.3546 95.1646 59.3111 93.995C55.4807 89.7125 51.1938 85.9386 46.7199 82.356C42.7852 79.2082 38.3548 79.0256 33.7461 80.1213C31.0896 80.7517 30.2157 81.9691 30.0418 84.7603C29.894 87.1647 30.2027 89.5299 30.907 91.8385C33.1896 99.2993 37.0157 105.725 43.346 110.499C44.8547 111.638 46.3156 112.76 48.233 113.19C49.3503 113.438 50.3981 114.03 51.3068 114.76C51.9329 115.264 52.5764 115.869 52.1068 116.773C51.6503 117.656 50.7851 117.643 50.0155 117.33C48.8808 116.869 47.7677 116.321 46.6982 115.725C44.2547 114.364 42.7026 114.686 41.1852 116.973C40.3287 118.264 39.8417 119.677 39.7113 121.234C39.4548 124.295 40.0417 125.451 42.9026 126.651C47.3851 128.529 52.0329 128.786 56.7459 127.656C58.6459 127.199 60.5067 126.59 62.385 126.056C62.8024 125.938 63.2198 125.808 63.6415 125.716C64.2502 125.586 64.8502 125.621 65.0806 126.312C65.3415 127.099 64.8589 127.56 64.1806 127.786C60.7502 128.925 57.3763 130.312 53.7155 130.56C49.846 130.821 46.0504 130.499 42.4069 129.025C41.32 128.586 40.333 127.995 39.4156 127.282C38.0113 126.195 37.2852 124.756 37.2591 122.977C37.207 118.995 38.3678 115.56 41.733 113.13C41.8374 113.056 41.8808 112.899 41.9808 112.738C41.8156 112.069 41.1852 111.773 40.7026 111.382C34.0374 106.008 30.3375 98.8472 28.281 90.7212C27.6549 88.2473 27.5636 85.7212 27.9853 83.1734C28.3505 80.9691 29.481 79.3561 31.5462 78.63C37.1635 76.6474 42.6417 76.6604 47.6417 80.3734C52.072 83.6604 56.172 87.3342 59.8415 91.469C60.2633 91.9472 60.5589 92.5646 61.4502 92.8994H61.4589Z" fill="black"/>
<path id="Vector_4" d="M140.789 62.1083C143.067 60.8779 145.345 59.6475 147.628 58.4258C148.202 58.1171 148.789 57.8258 149.389 57.5779C151.01 56.9084 151.284 57.0258 152.071 58.5649C153.388 61.1431 155.784 62.1953 158.393 62.6388C163.362 63.4866 168.036 62.4735 172.362 59.8692C175.571 57.9345 176.853 54.9388 177.188 51.3519C177.575 47.2041 176.767 43.4824 173.962 40.239C171.927 37.8868 170.175 35.3043 167.914 33.1347C165.836 31.1391 163.432 29.9913 160.549 29.8782C157.149 29.7478 153.749 29.5913 150.406 30.5174C145.449 31.8913 142.093 35.0999 140.045 39.6955C138.302 43.6085 139.245 46.7868 142.706 49.3867C143.076 49.665 143.436 49.9302 143.306 50.4258C143.132 51.0737 142.571 50.9737 142.063 50.9867C140.602 51.0215 139.619 50.1911 138.789 49.1476C136.45 46.1911 136.332 42.8564 137.497 39.4781C139.854 32.6565 146.449 27.8739 153.871 27.5261C156.184 27.4174 158.506 27.4696 160.823 27.5261C163.914 27.6 166.601 28.7478 168.897 30.8043C172.484 34.0217 175.345 37.8477 177.993 41.839C179.014 43.3737 179.488 45.1129 179.571 46.965C179.684 49.5085 179.623 52.0215 179.023 54.5171C178.249 57.7432 176.332 60.0997 173.558 61.7736C168.862 64.604 163.775 65.7083 158.336 64.8257C155.319 64.3344 152.641 63.0909 150.767 60.5823C150.132 59.7345 149.615 59.704 148.789 60.1649C145.949 61.7605 143.089 63.3214 140.232 64.8866C139.602 65.2344 138.993 65.6561 138.258 65.7561C137.297 65.8822 136.676 65.2866 136.889 64.3431C137.01 63.7909 137.315 63.2692 137.593 62.7692C138.819 60.5475 140.21 58.4301 141.723 56.391C142.241 55.691 142.762 55.0041 143.106 54.191C143.367 53.578 143.71 52.891 144.532 53.3128C145.319 53.7171 144.962 54.3997 144.749 55.0258C144.467 55.8649 143.949 56.5606 143.462 57.278C142.449 58.7649 141.458 60.2649 140.454 61.7605C140.563 61.8779 140.676 61.9953 140.784 62.1127L140.789 62.1083Z" fill="black"/>
<path id="Vector_5" d="M100.828 107.082C98.7237 107.125 96.6368 106.982 94.5542 106.634C90.1021 105.882 87.4847 103.056 86.3717 98.9167C85.2413 94.7255 86.2847 91.0342 89.8804 88.2864C92.789 86.0647 96.0281 84.5038 99.502 83.3821C102.119 82.5386 104.893 82.4473 107.458 82.8908C110.076 83.343 112.611 84.5429 114.08 87.2603C116.611 91.9472 117.193 96.6254 114.228 101.238C111.854 104.934 108.298 106.869 103.867 107.073C102.854 107.121 101.841 107.082 100.828 107.082ZM100.402 104.643C101.706 104.643 103.019 104.747 104.311 104.625C110.15 104.069 114.15 99.2254 113.65 93.3994C113.158 87.6994 108.271 84.2516 102.719 85.6734C102.267 85.7908 101.941 86.0473 101.641 86.3603C100.95 87.0777 100.389 87.4168 100.015 86.0734C99.8411 85.4516 99.2977 85.7734 98.9324 85.9212C96.0325 87.0951 93.2586 88.4951 90.8499 90.5298C88.3934 92.6037 87.9152 95.3646 88.6369 98.2428C89.3543 101.104 91.0369 103.334 94.1455 104.104C96.202 104.612 98.3107 104.617 100.402 104.643Z" fill="black"/>
<path id="Vector_6" d="M157.832 39.8564C158.658 38.8216 159.162 37.6695 160.162 36.9347C160.567 36.639 160.936 36.2695 161.38 36.0564C162.91 35.3217 164.119 35.8608 164.132 37.513C164.18 42.8216 163.249 47.8998 159.614 52.0606C157.627 54.3389 155.075 54.1171 153.241 51.6215C150.567 47.9868 150.38 43.8651 151.001 39.6086C151.106 38.8956 151.219 38.1825 151.571 37.5304C152.419 35.9738 153.971 35.6347 155.388 36.7043C156.449 37.5043 157.023 38.6999 157.827 39.8564H157.832ZM161.754 38.7477C160.367 40.1781 158.314 41.039 158.101 43.3955C158.054 43.9564 157.806 44.5172 157.371 44.9303C156.841 45.439 155.988 45.1868 155.888 44.4607C155.832 44.052 155.949 43.6086 156.054 43.1955C156.523 41.3564 155.628 39.9781 154.501 38.7086C153.993 38.1347 153.462 38.1825 153.301 39.0347C152.667 42.4303 152.61 45.7955 154.188 48.9824C155.671 51.9737 157.101 52.0737 158.949 49.352C161.093 46.1955 161.614 42.5694 161.749 38.7434L161.754 38.7477Z" fill="black"/>
<path id="Vector_7" d="M100.55 75.5909C99.9498 75.4691 99.6759 75.0952 99.7585 74.5083C99.8238 74.0518 100.059 73.6605 100.567 73.6387C101.202 73.6126 101.485 74.03 101.48 74.6039C101.48 75.1865 101.132 75.5257 100.545 75.5909H100.55Z" fill="black"/>
<path id="Vector_8" d="M95.0977 75.4387C95.0803 75.9909 94.8933 76.4648 94.289 76.5257C93.6934 76.5822 93.3151 76.217 93.3325 75.6257C93.3542 74.9909 93.689 74.4996 94.3933 74.5213C94.9107 74.5387 95.0803 74.9648 95.0977 75.4387Z" fill="black"/>
<path id="Vector_9" d="M98.3586 94.7559C97.6325 94.6863 97.4325 94.1863 97.4064 93.5776C97.376 92.9167 97.4151 92.1907 98.2455 92.1124C98.9542 92.0428 99.1716 92.6341 99.1934 93.2515C99.2151 93.9124 99.1542 94.5428 98.3586 94.7559Z" fill="black"/>
<path id="Vector_10" d="M104.767 92.9384C104.698 93.4297 104.498 93.7862 104.002 93.8689C103.398 93.9689 102.546 93.0428 102.589 92.3037C102.615 91.821 102.932 91.4471 103.402 91.5254C104.172 91.6515 104.572 92.2428 104.767 92.9428V92.9384Z" fill="black"/>
</g>
</g>
<defs>
<filter id="filter0_d_1534_5199" x="-0.00012207" y="0" width="216.996" height="170.841" filterUnits="userSpaceOnUse" color-interpolation-filters="sRGB">
<feFlood flood-opacity="0" result="BackgroundImageFix"/>
<feColorMatrix in="SourceAlpha" type="matrix" values="0 0 0 0 0 0 0 0 0 0 0 0 0 0 0 0 0 0 127 0" result="hardAlpha"/>
<feOffset dx="5" dy="5"/>
<feGaussianBlur stdDeviation="15"/>
<feColorMatrix type="matrix" values="0 0 0 0 0 0 0 0 0 0 0 0 0 0 0 0 0 0 0.1 0"/>
<feBlend mode="normal" in2="BackgroundImageFix" result="effect1_dropShadow_1534_5199"/>
<feBlend mode="normal" in="SourceGraphic" in2="effect1_dropShadow_1534_5199" result="shape"/>
</filter>
</defs>
</svg>
