<svg width="171" height="179" viewBox="0 0 171 179" fill="none" xmlns="http://www.w3.org/2000/svg">
<g id="surprise" filter="url(#filter0_d_1534_5233)">
<path id="Vector" d="M69.4807 37.8241C65.0634 39.0154 55.2244 40.211 48.407 49.1413C41.5897 58.0717 30.9116 67.289 34.3898 80.4454C37.868 93.6018 44.894 100.258 46.9592 100.963C49.0244 101.667 43.2419 103.393 40.3462 104.697C37.4506 106.002 25.2638 113.558 25.0594 119.593C24.8551 125.628 25.042 134.923 27.842 136.162C30.642 137.401 42.3549 135.606 47.2418 131.854C52.1287 128.101 60.8026 111.871 63.0765 111.415C65.3504 110.958 70.7199 112.693 70.3068 114.615C69.8938 116.536 69.8938 125.914 73.8198 130.523C77.7459 135.132 84.311 142.571 88.0501 143.188C91.7892 143.806 97.1065 144.223 98.4761 143.188C99.8456 142.153 104.185 132.032 101.915 125.215C99.6456 118.397 91.3935 112.436 94.7935 111.802C98.1935 111.167 111.211 108.776 115.345 106.458C119.48 104.141 130.015 95.0061 130.841 89.6583C131.667 84.3106 134.558 76.8976 133.528 71.3063C132.497 65.7151 128.776 61.1977 130.015 59.6325C131.254 58.0673 136.006 44.637 135.18 42.5718C134.354 40.5066 133.941 38.6458 130.428 39.4719C126.915 40.298 112.041 45.4631 108.737 45.4631C105.433 45.4631 96.9718 43.811 95.624 41.3327C94.2761 38.8545 96.3283 25.1981 89.1066 25.0025C81.885 24.8068 74.8546 36.3719 69.4851 37.8241H69.4807Z" fill="white"/>
<g id="Group">
<path id="Vector_2" d="M129.024 46.3458C126.345 47.6197 123.489 48.0588 120.615 48.4718C116.593 49.0501 112.615 49.837 108.88 51.5066C107.315 52.2066 105.811 52.1587 104.267 51.524C100.715 50.0675 97.0414 48.9457 93.4153 47.6979C89.8284 46.4632 89.1632 45.4675 89.1893 41.6154C89.2023 39.5154 89.2371 37.4154 89.2284 35.3154C89.2241 34.1546 89.1414 32.9981 88.6893 31.9024C88.3241 31.0198 87.7719 30.8503 87.0067 31.4416C86.8328 31.5763 86.6589 31.7024 86.4893 31.8372C84.2241 33.6459 81.9546 35.4459 79.7024 37.2676C78.0633 38.5937 76.5286 40.0241 75.359 41.798C74.8721 42.5415 74.2416 43.011 73.372 42.4545C72.5199 41.911 72.6199 41.0632 73.0503 40.3415C73.5286 39.5371 74.1025 38.7719 74.746 38.0937C78.0981 34.5415 82.1763 31.8633 86.0676 28.9807C87.7893 27.7025 89.7937 28.359 90.8458 30.2459C91.6806 31.7372 91.911 33.3937 91.9501 35.072C92.0023 37.3154 92.0719 39.5676 91.9806 41.8067C91.9067 43.5458 92.6501 44.4632 94.2501 44.9936C98.0283 46.2501 101.78 47.5762 105.524 48.9196C106.641 49.3196 107.689 49.1283 108.698 48.7197C112.833 47.0458 117.185 46.3327 121.563 45.6979C124.011 45.3458 126.402 44.7893 128.567 43.5154C128.937 43.298 129.354 43.1371 129.771 43.0458C131.158 42.7414 131.741 43.1719 132.102 44.5632C132.389 45.6719 132.128 46.7371 131.893 47.7805C131.089 51.3283 130.019 54.8152 127.998 57.8587C126.793 59.6717 126.889 61.25 127.706 63.1108C128.863 65.7543 129.919 68.4281 130.354 71.3455C130.919 75.115 130.406 78.715 129.163 82.2367C128.298 84.6932 127.211 87.0671 126.319 89.5192C124.645 94.1366 121.459 97.48 117.624 100.371C112.806 104.006 107.467 106.454 101.633 107.923C94.8023 109.645 87.9502 111.128 80.8285 110.541C74.5329 110.019 68.3156 109.067 62.307 107.063C57.3288 105.402 46.6941 97.7757 43.755 93.4323C37.5115 84.215 36.3507 74.4542 41.2506 64.2282C42.9897 60.6065 45.2549 57.35 48.094 54.5022C51.1636 51.4283 54.207 48.3414 57.7374 45.7588C60.9244 43.4284 64.4243 42.8197 68.2156 43.111C68.733 43.1501 69.3112 43.1632 69.3373 43.8414C69.3721 44.6371 68.7547 44.7327 68.1417 44.7501C67.7808 44.7632 67.4156 44.7762 67.0547 44.7414C63.8373 44.4327 61.0635 45.5153 58.607 47.4979C52.5462 52.3979 46.8636 57.6369 43.3854 64.8021C41.9854 67.6847 40.8811 70.7238 40.6724 73.9151C40.0724 83.015 42.968 90.7105 50.3201 96.4453C51.6896 97.5148 53.1592 98.4583 54.5114 99.5452C59.2722 103.371 64.7548 105.458 70.7243 106.397C74.8025 107.041 78.872 107.645 83.0155 107.802C89.2763 108.041 95.2066 106.432 101.185 104.954C107.72 103.341 113.446 100.254 118.472 95.7887C120.232 94.2279 121.719 92.4975 122.654 90.3192C124.454 86.1323 126.485 82.0411 127.324 77.4976C127.919 74.2759 127.545 71.1499 126.48 68.0934C125.863 66.3195 125.202 64.5456 124.406 62.8456C123.467 60.85 123.828 59.0935 124.963 57.3326C126.945 54.2631 128.267 50.9066 129.15 47.3675C129.219 47.0936 129.345 46.8153 129.002 46.324L129.024 46.3458Z" fill="black"/>
<path id="Vector_3" d="M82.8372 118.049C82.8372 116.641 82.8198 115.571 82.8372 114.502C82.898 111.567 83.9763 110.841 86.6676 111.841C90.8458 113.388 94.0457 116.088 96.2588 119.932C97.0848 121.367 97.8805 122.867 97.2414 124.636C97.1066 125.014 97.2935 125.332 97.4544 125.658C98.4022 127.606 98.5196 129.697 98.4588 131.814C98.3936 133.988 98.237 136.153 97.7109 138.275C97.0153 141.066 95.8849 141.849 92.9979 141.414C89.5501 140.893 86.4719 139.471 83.8719 137.153C81.2198 134.793 78.7763 132.206 76.5242 129.462C73.6633 125.971 72.5503 121.784 72.1025 117.401C71.9025 115.462 72.872 114.619 74.8851 114.819C76.8676 115.015 78.6285 115.897 80.3894 116.745C81.098 117.084 81.7763 117.488 82.8241 118.054L82.8372 118.049ZM92.6501 122.506C91.5371 122.501 90.7501 123.023 89.9588 123.536C87.8893 124.871 85.8197 126.201 83.7545 127.541C83.0241 128.014 82.3154 128.51 81.585 128.984C80.872 129.445 80.8068 129.897 81.4459 130.523C82.685 131.74 83.8415 133.04 85.0806 134.253C87.0328 136.167 89.3545 137.453 91.9849 138.193C94.4545 138.884 94.7153 138.723 95.1284 136.258C95.1892 135.901 95.2588 135.545 95.3066 135.188C95.8371 131.249 95.9762 127.38 93.3414 123.984C93.0414 123.597 92.911 123.084 92.6458 122.51L92.6501 122.506ZM92.9936 119.493C91.0979 116.845 88.7806 114.954 85.7067 114.132C85.311 114.493 85.3589 114.862 85.3633 115.21C85.3806 116.441 85.4154 117.671 85.4328 118.901C85.4458 119.849 85.4893 120.871 84.5459 121.423C83.5328 122.014 82.7632 121.275 82.0198 120.719C80.5024 119.58 78.8677 118.658 77.1068 117.967C76.4764 117.719 75.8416 117.28 75.0199 117.675C75.3633 120.949 76.372 123.914 78.1285 126.636C78.6416 127.432 79.0328 127.68 79.9893 127.032C84.098 124.254 87.9806 121.071 92.9979 119.488L92.9936 119.493Z" fill="black"/>
<path id="Vector_4" d="M49.8287 109.906C50.7766 110.08 51.3201 109.645 51.9157 109.45C53.0896 109.063 54.2679 108.732 55.507 108.658C57.7591 108.528 58.9287 109.91 58.32 112.08C58.0895 112.902 57.7069 113.719 57.2417 114.436C53.9374 119.549 50.3896 124.458 46.0288 128.767C42.6114 132.145 38.4593 133.749 33.8768 134.484C31.1898 134.915 30.0985 134.18 29.3246 131.645C28.7551 129.78 28.2681 127.889 27.9507 125.954C27.7246 124.567 27.8637 123.215 28.1985 121.871C28.2855 121.523 28.6203 121.093 28.5073 120.862C27.5986 118.967 28.9985 117.88 29.9463 116.684C31.9376 114.171 34.2724 112.015 36.9593 110.25C40.4723 107.941 44.081 105.806 48.0549 104.367C48.7288 104.124 49.4461 103.915 50.1548 103.876C51.6418 103.793 52.307 104.676 51.8461 106.093C51.6244 106.771 51.2331 107.402 50.894 108.041C50.5896 108.61 50.2505 109.163 49.8244 109.906H49.8287ZM40.1463 110.789C40.9854 112.319 41.9723 113.315 43.1332 114.206C45.1506 115.749 46.8897 117.602 48.5723 119.502C48.881 119.849 49.107 120.262 48.8027 120.671C48.4244 121.184 47.9114 121.062 47.4636 120.728C46.7679 120.21 46.0593 119.702 45.4071 119.132C44.3723 118.228 43.4114 117.236 42.3549 116.354C40.8376 115.089 39.1115 114.023 38.6811 111.784C35.6463 113.628 33.3681 115.932 31.3072 118.471C31.0855 118.745 30.842 119.08 30.8072 119.41C30.4029 123.254 30.529 127.041 31.8594 130.741C32.2594 131.854 32.9594 131.971 33.8811 131.78C37.7593 130.984 41.3332 129.68 44.2593 126.762C48.3897 122.641 51.7766 117.963 55.0765 113.197C55.4765 112.615 55.9244 112.015 55.8374 111.15C55.1244 110.876 54.4461 111.15 53.7548 111.306C52.1157 111.68 50.6418 112.467 49.0983 113.089C48.181 113.458 47.1288 114.093 46.2853 113.141C45.4071 112.15 46.3071 111.258 46.7984 110.41C47.5027 109.202 48.2505 108.019 48.9766 106.828C48.8549 106.702 48.7375 106.576 48.6158 106.454C45.6636 107.541 42.9419 109.102 40.1419 110.784L40.1463 110.789Z" fill="black"/>
<path id="Vector_5" d="M96.4806 74.1281C96.5415 80.0845 93.6415 84.141 88.3241 86.5279C87.2155 87.0279 86.6285 87.6758 86.2937 88.7975C85.9198 90.0409 85.4416 91.267 84.8633 92.4279C84.0764 94.0105 83.0198 94.1279 81.8025 92.88C81.6025 92.6714 81.4112 92.4496 81.2546 92.2061C79.6981 89.8149 78.2764 87.2975 75.0765 86.7149C74.5591 86.6192 74.0852 86.1279 73.6591 85.741C71.0939 83.3932 68.62 80.9541 66.3504 78.3193C65.1635 76.9411 64.6113 75.3672 64.6244 73.5411C64.6461 70.7411 65.0374 68.0499 66.5896 65.6499C69.0548 61.8369 72.6069 61.0978 76.6373 62.1456C77.1156 62.2717 77.5634 62.5543 78.0025 62.8021C78.3373 62.989 78.5677 63.3021 78.4242 63.6977C78.2416 64.2064 77.7721 64.3108 77.3547 64.1151C76.0504 63.5021 74.6851 63.5499 73.3069 63.6325C71.2852 63.7499 69.7287 64.7064 68.5939 66.3499C66.8026 68.9455 66.5809 71.8803 66.8852 74.8889C66.9766 75.7715 67.5678 76.4715 68.1504 77.1237C70.2156 79.4584 72.4678 81.6063 74.7113 83.7671C76.8504 85.8236 79.5155 85.9888 82.2285 85.7584C86.8676 85.3627 90.8633 83.6888 93.085 79.3019C94.7458 76.0237 94.7415 72.5976 93.1458 69.2585C92.585 68.089 91.8502 66.9977 91.1285 65.9195C89.3024 63.1847 86.7937 61.4891 83.4807 61.1238C81.0938 60.8586 78.7808 60.2804 76.5025 59.563C75.446 59.2326 74.3895 59.1108 73.2939 59.1586C72.9113 59.176 72.546 59.0108 72.4504 58.6195C72.3286 58.1195 72.6417 57.8152 73.0895 57.6369C74.1895 57.2065 75.3286 57.0022 76.4895 57.2935C79.3677 58.0152 82.2677 58.6282 85.1981 59.0847C87.6633 59.4673 89.6415 60.7456 91.3198 62.5412C93.1632 64.5195 94.5719 66.789 95.685 69.2412C96.3893 70.7933 96.498 72.4542 96.4806 74.1368V74.1281ZM80.8286 88.054C81.4546 89.5105 82.1155 90.5105 83.3068 91.4322C83.6981 90.1453 84.3459 89.1975 84.4416 87.8888C83.2764 87.941 82.2112 87.9888 80.8286 88.054Z" fill="black"/>
<path id="Vector_6" d="M94.8544 57.063C95.5414 57.1239 95.937 57.5021 95.9152 58.1586C95.8848 58.9108 95.5979 59.5847 94.711 59.6325C94.0153 59.6673 93.6675 59.1847 93.6805 58.5499C93.6979 57.7978 93.9762 57.1586 94.8588 57.063H94.8544Z" fill="black"/>
<path id="Vector_7" d="M84.9459 68.0237C84.6328 68.5715 84.7328 69.5759 83.685 69.6585C83.1937 69.6976 82.9198 69.3324 82.972 68.815C83.0503 68.0498 83.8763 67.0368 84.3676 67.1367C84.7459 67.2107 84.9676 67.4933 84.9459 68.0237Z" fill="black"/>
<path id="Vector_8" d="M77.3199 70.2934C77.3895 69.6717 77.3677 68.9804 78.1025 68.9326C78.8721 68.8804 78.9243 69.5499 78.9417 70.1239C78.9591 70.7195 78.8634 71.3282 78.0982 71.3021C77.4808 71.2847 77.3721 70.7456 77.3199 70.2934Z" fill="black"/>
<path id="Vector_9" d="M89.1023 54.7153C88.9849 55.3327 88.5328 55.4849 87.998 55.4675C87.4545 55.4501 86.9763 55.237 86.998 54.6153C87.0285 53.8979 87.5675 53.6805 88.198 53.7414C88.7501 53.7936 89.1067 54.1023 89.098 54.7153H89.1023Z" fill="black"/>
</g>
</g>
<defs>
<filter id="filter0_d_1534_5233" x="0" y="0" width="170.276" height="178.817" filterUnits="userSpaceOnUse" color-interpolation-filters="sRGB">
<feFlood flood-opacity="0" result="BackgroundImageFix"/>
<feColorMatrix in="SourceAlpha" type="matrix" values="0 0 0 0 0 0 0 0 0 0 0 0 0 0 0 0 0 0 127 0" result="hardAlpha"/>
<feOffset dx="5" dy="5"/>
<feGaussianBlur stdDeviation="15"/>
<feColorMatrix type="matrix" values="0 0 0 0 0 0 0 0 0 0 0 0 0 0 0 0 0 0 0.1 0"/>
<feBlend mode="normal" in2="BackgroundImageFix" result="effect1_dropShadow_1534_5233"/>
<feBlend mode="normal" in="SourceGraphic" in2="effect1_dropShadow_1534_5233" result="shape"/>
</filter>
</defs>
</svg>
