<svg width="24" height="24" viewBox="0 0 24 24" fill="none" xmlns="http://www.w3.org/2000/svg">
<path fill-rule="evenodd" clip-rule="evenodd" d="M20.3188 10.8001H13.3188V3.8001C13.3188 3.48184 13.1923 3.17661 12.9673 2.95157C12.7422 2.72653 12.437 2.6001 12.1187 2.6001C11.8005 2.6001 11.4953 2.72653 11.2702 2.95157C11.0452 3.17661 10.9188 3.48184 10.9188 3.8001V10.8001H3.91875C3.60049 10.8001 3.29527 10.9265 3.07022 11.1516C2.84518 11.3766 2.71875 11.6818 2.71875 12.0001C2.71875 12.3184 2.84518 12.6236 3.07022 12.8486C3.29527 13.0737 3.60049 13.2001 3.91875 13.2001H10.9188V20.2001C10.9188 20.5184 11.0452 20.8236 11.2702 21.0486C11.4953 21.2737 11.8005 21.4001 12.1187 21.4001C12.437 21.4001 12.7422 21.2737 12.9673 21.0486C13.1923 20.8236 13.3188 20.5184 13.3188 20.2001V13.2001H20.3188C20.637 13.2001 20.9422 13.0737 21.1673 12.8486C21.3923 12.6236 21.5187 12.3184 21.5187 12.0001C21.5187 11.6818 21.3923 11.3766 21.1673 11.1516C20.9422 10.9265 20.637 10.8001 20.3188 10.8001Z" fill="#A1929A"/>
</svg>
