<svg width="20" height="21" viewBox="0 0 20 21" fill="none" xmlns="http://www.w3.org/2000/svg">
<path fill-rule="evenodd" clip-rule="evenodd" d="M16.9317 9.49996H11.0983V3.66663C11.0983 3.40141 10.993 3.14706 10.8055 2.95952C10.6179 2.77198 10.3636 2.66663 10.0983 2.66663C9.83313 2.66663 9.57878 2.77198 9.39124 2.95952C9.2037 3.14706 9.09835 3.40141 9.09835 3.66663V9.49996H3.26501C2.9998 9.49996 2.74544 9.60532 2.55791 9.79285C2.37037 9.98039 2.26501 10.2347 2.26501 10.5C2.26501 10.7652 2.37037 11.0195 2.55791 11.2071C2.74544 11.3946 2.9998 11.5 3.26501 11.5H9.09835V17.3333C9.09835 17.5985 9.2037 17.8529 9.39124 18.0404C9.57878 18.2279 9.83313 18.3333 10.0983 18.3333C10.3636 18.3333 10.6179 18.2279 10.8055 18.0404C10.993 17.8529 11.0983 17.5985 11.0983 17.3333V11.5H16.9317C17.1969 11.5 17.4513 11.3946 17.6388 11.2071C17.8263 11.0195 17.9317 10.7652 17.9317 10.5C17.9317 10.2347 17.8263 9.98039 17.6388 9.79285C17.4513 9.60532 17.1969 9.49996 16.9317 9.49996Z" fill="#AEAEAE"/>
</svg>
