<svg width="22" height="22" viewBox="0 0 22 22" fill="none" xmlns="http://www.w3.org/2000/svg">
<path fill-rule="evenodd" clip-rule="evenodd" d="M15.207 13.793C15.2998 13.8858 15.3735 13.9961 15.4237 14.1174C15.474 14.2387 15.4998 14.3687 15.4998 14.5C15.4998 14.6313 15.474 14.7613 15.4237 14.8826C15.3735 15.0039 15.2998 15.1142 15.207 15.207C15.1142 15.2998 15.0039 15.3735 14.8826 15.4237C14.7613 15.474 14.6313 15.4998 14.5 15.4998C14.3687 15.4998 14.2387 15.474 14.1174 15.4237C13.9961 15.3735 13.8858 15.2998 13.793 15.207L11 12.414L8.207 15.207C8.11435 15.3002 8.00419 15.3741 7.88285 15.4246C7.76152 15.4751 7.63141 15.501 7.5 15.501C7.36859 15.501 7.23848 15.4751 7.11715 15.4246C6.99581 15.3741 6.88565 15.3002 6.793 15.207C6.70005 15.1142 6.62632 15.004 6.57601 14.8827C6.5257 14.7614 6.4998 14.6313 6.4998 14.5C6.4998 14.3687 6.5257 14.2386 6.57601 14.1173C6.62632 13.996 6.70005 13.8858 6.793 13.793L9.586 11L6.793 8.207C6.70016 8.11415 6.62651 8.00393 6.57626 7.88263C6.52601 7.76132 6.50015 7.6313 6.50015 7.5C6.50015 7.3687 6.52601 7.23868 6.57626 7.11737C6.62651 6.99607 6.70016 6.88584 6.793 6.793C6.88584 6.70016 6.99607 6.62651 7.11737 6.57626C7.23868 6.52601 7.3687 6.50015 7.5 6.50015C7.6313 6.50015 7.76132 6.52601 7.88263 6.57626C8.00393 6.62651 8.11415 6.70016 8.207 6.793L11 9.586L13.793 6.793C13.8858 6.70016 13.9961 6.62651 14.1174 6.57626C14.2387 6.52601 14.3687 6.50015 14.5 6.50015C14.6313 6.50015 14.7613 6.52601 14.8826 6.57626C15.0039 6.62651 15.1142 6.70016 15.207 6.793C15.2998 6.88584 15.3735 6.99607 15.4237 7.11737C15.474 7.23868 15.4998 7.3687 15.4998 7.5C15.4998 7.6313 15.474 7.76132 15.4237 7.88263C15.3735 8.00393 15.2998 8.11415 15.207 8.207L12.414 11L15.207 13.793ZM11 0C4.925 0 0 4.925 0 11C0 17.075 4.925 22 11 22C17.075 22 22 17.075 22 11C22 4.925 17.075 0 11 0Z" fill="#A1929A"/>
</svg>
