<svg width="16" height="16" viewBox="0 0 16 16" fill="none" xmlns="http://www.w3.org/2000/svg">
<g clip-path="url(#clip0_61_7355)">
<path d="M1 2.6C1 2.03995 1 1.75992 1.1122 1.54601C1.21089 1.35785 1.36837 1.20487 1.56207 1.10899C1.78227 1 2.07053 1 2.64706 1H13.3529C13.9295 1 14.2177 1 14.4379 1.10899C14.6316 1.20487 14.7891 1.35785 14.8878 1.54601C15 1.75992 15 2.03995 15 2.6V4.4C15 4.96005 15 5.24008 14.8878 5.45399C14.7891 5.64215 14.6316 5.79513 14.4379 5.89101C14.2177 6 13.9295 6 13.3529 6H2.64706C2.07053 6 1.78227 6 1.56207 5.89101C1.36837 5.79513 1.21089 5.64215 1.1122 5.45399C1 5.24008 1 4.96005 1 4.4V2.6Z" stroke="#424242" stroke-width="2"/>
<path d="M1 11.6C1 11.0399 1 10.7599 1.1122 10.546C1.21089 10.3578 1.36837 10.2049 1.56207 10.109C1.78227 10 2.07053 10 2.64706 10H13.3529C13.9295 10 14.2177 10 14.4379 10.109C14.6316 10.2049 14.7891 10.3578 14.8878 10.546C15 10.7599 15 11.0399 15 11.6V13.4C15 13.9601 15 14.2401 14.8878 14.454C14.7891 14.6422 14.6316 14.7951 14.4379 14.891C14.2177 15 13.9295 15 13.3529 15H2.64706C2.07053 15 1.78227 15 1.56207 14.891C1.36837 14.7951 1.21089 14.6422 1.1122 14.454C1 14.2401 1 13.9601 1 13.4V11.6Z" stroke="#424242" stroke-width="2"/>
</g>
<defs>
<clipPath id="clip0_61_7355">
<rect width="16" height="16" fill="white"/>
</clipPath>
</defs>
</svg>
