<svg width="24" height="24" viewBox="0 0 24 24" fill="none" xmlns="http://www.w3.org/2000/svg">
<path fill-rule="evenodd" clip-rule="evenodd" d="M16.9809 12.747C16.7757 12.7522 16.5715 12.7162 16.3804 12.6412C16.1893 12.5662 16.0152 12.4538 15.8682 12.3104C15.7213 12.1671 15.6045 11.9958 15.5248 11.8066C15.4451 11.6175 15.4041 11.4143 15.4042 11.209C15.4042 11.0037 15.4454 10.8005 15.5252 10.6114C15.605 10.4223 15.7219 10.2511 15.8689 10.1078C16.016 9.96459 16.1902 9.85223 16.3813 9.77738C16.5725 9.70253 16.7767 9.6667 16.9819 9.672C17.3829 9.68236 17.7639 9.84895 18.0438 10.1363C18.3237 10.4236 18.4803 10.8089 18.4802 11.21C18.48 11.6111 18.3232 11.9963 18.0431 12.2834C17.763 12.5706 17.3819 12.7369 16.9809 12.747ZM12.0669 12.747C11.8615 12.7522 11.6572 12.7162 11.466 12.6412C11.2748 12.5661 11.1005 12.4536 10.9535 12.3102C10.8065 12.1667 10.6896 11.9953 10.6099 11.806C10.5301 11.6167 10.4891 11.4134 10.4892 11.208C10.4892 11.0026 10.5304 10.7993 10.6103 10.61C10.6902 10.4208 10.8071 10.2495 10.9542 10.1061C11.1014 9.96279 11.2757 9.85036 11.467 9.77546C11.6582 9.70055 11.8625 9.6647 12.0679 9.67C12.4691 9.68036 12.8504 9.84706 13.1305 10.1346C13.4106 10.4221 13.5673 10.8076 13.5672 11.209C13.567 11.6104 13.4101 11.9958 13.1298 12.2831C12.8496 12.5704 12.4681 12.7369 12.0669 12.747ZM7.15188 12.747C6.94667 12.7522 6.7425 12.7162 6.55141 12.6412C6.36032 12.5662 6.18617 12.4538 6.03923 12.3104C5.89229 12.1671 5.77552 11.9958 5.69582 11.8066C5.61612 11.6175 5.5751 11.4143 5.57516 11.209C5.57523 11.0037 5.61639 10.8005 5.69621 10.6114C5.77604 10.4223 5.89291 10.2511 6.03994 10.1078C6.18698 9.96459 6.3612 9.85223 6.55234 9.77738C6.74348 9.70253 6.94767 9.6667 7.15287 9.672C7.55385 9.68236 7.93492 9.84895 8.21482 10.1363C8.49472 10.4236 8.65129 10.8089 8.65116 11.21C8.65103 11.6111 8.49421 11.9963 8.21412 12.2834C7.93404 12.5706 7.55286 12.7369 7.15188 12.747ZM12.0009 1.5C6.16788 1.5 1.42188 5.814 1.42188 11.117C1.42188 13.387 2.38187 16.476 5.05587 18.47L4.74087 21.764C4.72905 21.8854 4.75048 22.0077 4.80286 22.1178C4.85525 22.228 4.93662 22.3218 5.03826 22.3892C5.13989 22.4566 5.25795 22.4951 5.37979 22.5005C5.50163 22.5059 5.62265 22.4781 5.72988 22.42L9.16087 20.574C9.58787 20.618 10.8419 20.734 12.0009 20.734C17.8339 20.734 22.5799 16.42 22.5799 11.117C22.5799 5.814 17.8339 1.5 12.0009 1.5Z" fill="#A1929A"/>
</svg>
