<svg width="16" height="16" viewBox="0 0 16 16" fill="none" xmlns="http://www.w3.org/2000/svg">
<path fill-rule="evenodd" clip-rule="evenodd" d="M9.81505 8.00012L15.4661 2.34912C15.5775 2.23769 15.666 2.1054 15.7264 1.95978C15.7867 1.81417 15.8178 1.6581 15.8179 1.50047C15.8179 1.34284 15.7869 1.18675 15.7266 1.0411C15.6664 0.895458 15.578 0.763111 15.4666 0.651619C15.3551 0.540126 15.2228 0.451673 15.0772 0.391308C14.9316 0.330944 14.7755 0.299851 14.6179 0.299805C14.4603 0.299758 14.3042 0.330759 14.1585 0.391038C14.0129 0.451316 13.8805 0.539692 13.7691 0.651118L8.11805 6.30312L2.46605 0.651118C2.23841 0.438495 1.93706 0.322634 1.62561 0.327991C1.31416 0.333347 1.01698 0.459502 0.79678 0.679828C0.576584 0.900154 0.450605 1.19741 0.445432 1.50887C0.440258 1.82032 0.556296 2.1216 0.769054 2.34912L6.42105 8.00012L0.769054 13.6511C0.602013 13.8193 0.488434 14.0331 0.442602 14.2657C0.39677 14.4983 0.420732 14.7392 0.511473 14.9582C0.602213 15.1772 0.755682 15.3645 0.952577 15.4965C1.14947 15.6285 1.381 15.6994 1.61805 15.7001C1.92505 15.7001 2.23205 15.5831 2.46605 15.3491L8.11805 9.69712L13.7691 15.3491C13.8803 15.4608 14.0126 15.5494 14.1582 15.6098C14.3038 15.6703 14.4599 15.7014 14.6176 15.7014C14.7752 15.7014 14.9313 15.6703 15.0769 15.6098C15.2225 15.5494 15.3548 15.4608 15.4661 15.3491C15.5776 15.2377 15.6661 15.1053 15.7265 14.9596C15.7869 14.814 15.818 14.6578 15.818 14.5001C15.818 14.3424 15.7869 14.1863 15.7265 14.0406C15.6661 13.8949 15.5776 13.7626 15.4661 13.6511L9.81505 8.00012Z" fill="#AEAEAE"/>
</svg>
