<svg width="14" height="24" viewBox="0 0 14 24" fill="none" xmlns="http://www.w3.org/2000/svg">
<path fill-rule="evenodd" clip-rule="evenodd" d="M5.00095 5.22852C5.00102 4.96581 5.05283 4.70568 5.15342 4.463C5.25402 4.22031 5.40143 3.99981 5.58724 3.81409C5.77305 3.62838 5.99362 3.48108 6.23636 3.3806C6.47909 3.28013 6.73924 3.22845 7.00195 3.22852C7.26466 3.22858 7.52479 3.28039 7.76747 3.38099C8.01016 3.48158 8.23066 3.62899 8.41637 3.8148C8.60209 4.00061 8.74939 4.22118 8.84986 4.46392C8.95034 4.70666 9.00202 4.96681 9.00195 5.22952C9.00182 5.76008 8.79093 6.26886 8.41567 6.64394C8.04041 7.01901 7.53152 7.22965 7.00095 7.22952C6.47039 7.22938 5.9616 7.01849 5.58653 6.64323C5.21146 6.26797 5.00082 5.75908 5.00095 5.22852ZM5.00095 11.9995C5.00095 11.4691 5.21167 10.9604 5.58674 10.5853C5.96181 10.2102 6.47052 9.99952 7.00095 9.99952C7.53139 9.99952 8.04009 10.2102 8.41517 10.5853C8.79024 10.9604 9.00095 11.4691 9.00095 11.9995C9.00095 12.5299 8.79024 13.0387 8.41517 13.4137C8.04009 13.7888 7.53139 13.9995 7.00095 13.9995C6.47052 13.9995 5.96181 13.7888 5.58674 13.4137C5.21167 13.0387 5.00095 12.5299 5.00095 11.9995ZM5.00095 18.7695C5.00102 18.5068 5.05283 18.2467 5.15342 18.004C5.25402 17.7613 5.40143 17.5408 5.58724 17.3551C5.77305 17.1694 5.99362 17.0221 6.23636 16.9216C6.47909 16.8211 6.73924 16.7695 7.00195 16.7695C7.26466 16.7696 7.52479 16.8214 7.76747 16.922C8.01016 17.0226 8.23066 17.17 8.41637 17.3558C8.60209 17.5416 8.74939 17.7622 8.84986 18.0049C8.95034 18.2477 9.00202 18.5078 9.00195 18.7705C9.00182 19.3011 8.79093 19.8099 8.41567 20.1849C8.04041 20.56 7.53152 20.7706 7.00095 20.7705C6.47039 20.7704 5.9616 20.5595 5.58653 20.1842C5.21146 19.809 5.00082 19.3001 5.00095 18.7695Z" fill="#A1929A"/>
</svg>
