<svg width="20" height="20" viewBox="0 0 20 20" fill="none" xmlns="http://www.w3.org/2000/svg">
<path fill-rule="evenodd" clip-rule="evenodd" d="M8.3338 4.3571C8.33386 4.13817 8.37703 3.9214 8.46086 3.71916C8.54469 3.51692 8.66753 3.33318 8.82237 3.17841C8.97722 3.02365 9.16102 2.9009 9.3633 2.81717C9.56559 2.73344 9.78238 2.69037 10.0013 2.69043C10.2202 2.69048 10.437 2.73366 10.6392 2.81749C10.8415 2.90132 11.0252 3.02416 11.18 3.179C11.3347 3.33384 11.4575 3.51765 11.5412 3.71993C11.625 3.92221 11.668 4.13901 11.668 4.35793C11.6679 4.80007 11.4921 5.22405 11.1794 5.53661C10.8667 5.84917 10.4426 6.02471 10.0005 6.0246C9.55833 6.02449 9.13434 5.84874 8.82178 5.53602C8.50922 5.22331 8.33369 4.79923 8.3338 4.3571ZM8.3338 9.9996C8.3338 9.55757 8.5094 9.13365 8.82196 8.82108C9.13452 8.50852 9.55844 8.33293 10.0005 8.33293C10.4425 8.33293 10.8664 8.50852 11.179 8.82108C11.4915 9.13365 11.6671 9.55757 11.6671 9.9996C11.6671 10.4416 11.4915 10.8655 11.179 11.1781C10.8664 11.4907 10.4425 11.6663 10.0005 11.6663C9.55844 11.6663 9.13452 11.4907 8.82196 11.1781C8.5094 10.8655 8.3338 10.4416 8.3338 9.9996ZM8.3338 15.6413C8.33386 15.4223 8.37703 15.2056 8.46086 15.0033C8.54469 14.8011 8.66753 14.6173 8.82237 14.4626C8.97721 14.3078 9.16102 14.1851 9.3633 14.1013C9.56559 14.0176 9.78238 13.9745 10.0013 13.9746C10.2202 13.9747 10.437 14.0178 10.6392 14.1017C10.8415 14.1855 11.0252 14.3083 11.18 14.4632C11.3347 14.618 11.4575 14.8018 11.5412 15.0041C11.625 15.2064 11.668 15.4232 11.668 15.6421C11.6679 16.0842 11.4921 16.5082 11.1794 16.8208C10.8667 17.1333 10.4426 17.3089 10.0005 17.3088C9.55833 17.3087 9.13434 17.1329 8.82178 16.8202C8.50922 16.5075 8.33369 16.0834 8.3338 15.6413Z" fill="#AEAEAE"/>
</svg>
