<svg width="116" height="21" viewBox="0 0 116 21" fill="none" xmlns="http://www.w3.org/2000/svg">
<path d="M6.53641 15.9H0.536406V0.259999H12.8964V5.36H6.53641V6.06H12.8964V11.1H6.53641V15.9ZM13.7297 9.84C13.7297 5.82 16.4297 3.28 21.1697 3.28C24.2497 3.28 26.1897 3.96 27.3097 5.38V11.56C24.6897 11.56 22.1297 11.38 19.6497 10.88V11.58C21.9497 12.14 24.8697 12.26 27.3097 12.26V14.42C25.5297 15.82 23.3297 16.22 20.4897 16.22C16.4297 16.22 13.7297 13.88 13.7297 9.84ZM19.6497 7.24V7.82C20.6897 8.06 22.3697 8.24 23.3697 8.24V7.68C22.3697 7.68 20.7897 7.5 19.6497 7.24ZM28.1242 9.84C28.1242 5.82 30.8242 3.28 35.5642 3.28C38.6442 3.28 40.5842 3.96 41.7042 5.38V11.56C39.0842 11.56 36.5242 11.38 34.0442 10.88V11.58C36.3442 12.14 39.2642 12.26 41.7042 12.26V14.42C39.9242 15.82 37.7242 16.22 34.8842 16.22C30.8242 16.22 28.1242 13.88 28.1242 9.84ZM34.0442 7.24V7.82C35.0842 8.06 36.7642 8.24 37.7642 8.24V7.68C36.7642 7.68 35.1842 7.5 34.0442 7.24ZM56.6988 15.9H50.5588C44.8388 15.9 42.5588 14.26 42.5588 9.5C42.5588 5.26 45.1388 3.04 49.8988 3.28V0.259999H56.6988V15.9ZM52.5788 8.9L52.2188 8.4C51.2388 9 48.9188 9.44 47.4188 9.44V10C48.9188 10 51.4588 9.62 52.5788 8.9ZM57.5188 9.84C57.5188 5.86 60.5588 3.28 64.6188 3.28C68.6788 3.28 71.7188 5.86 71.7188 9.84C71.7188 13.84 68.6788 16.42 64.6188 16.42C60.5588 16.42 57.5188 13.86 57.5188 9.84ZM67.3788 9.42L67.0188 8.92C66.0388 9.52 63.7188 9.96 62.2188 9.96V10.52C63.7188 10.52 66.2588 10.14 67.3788 9.42ZM72.3234 9.84C72.3234 5.86 75.3634 3.28 79.4234 3.28C83.4834 3.28 86.5234 5.86 86.5234 9.84C86.5234 13.84 83.4834 16.42 79.4234 16.42C75.3634 16.42 72.3234 13.86 72.3234 9.84ZM82.1834 9.42L81.8234 8.92C80.8434 9.52 78.5234 9.96 77.0234 9.96V10.52C78.5234 10.52 81.0634 10.14 82.1834 9.42ZM92.5481 3.68L93.2481 4.38C94.6081 3.64 95.8681 3.28 97.2281 3.28C99.3481 3.28 101.088 4.84 101.088 7.54V15.9H94.6881V8.86L93.9481 9.14V15.9H87.5481V3.68H92.5481ZM101.933 9.34C101.933 5.44 104.213 3.28 107.333 3.28C108.953 3.28 109.793 3.52 110.813 4.16L111.273 3.68H115.673V14.1C115.673 18 113.493 20.08 109.093 20.08C107.053 20.08 104.773 19.8 103.273 19.26V14.7C105.353 15.68 108.013 15.9 109.673 15.3V14.68C105.393 15.86 101.933 13.82 101.933 9.34ZM110.993 8.88L110.633 8.38C109.653 8.98 107.733 9.42 106.233 9.42V9.98C107.733 9.98 109.873 9.6 110.993 8.88Z" fill="white"/>
</svg>
