<svg width="20" height="20" viewBox="0 0 20 20" fill="none" xmlns="http://www.w3.org/2000/svg">
<path fill-rule="evenodd" clip-rule="evenodd" d="M8.061 1.18096C7.66599 0.786179 7.13047 0.564273 6.572 0.563965H2.106C1.54745 0.563965 1.01178 0.785846 0.616833 1.1808C0.221882 1.57575 0 2.11142 0 2.66997V3.64696H10.527L8.061 1.18096ZM17.895 4.64697H0V17.331C0 18.494 0.943 19.436 2.106 19.436H17.895C18.1715 19.4361 18.4453 19.3817 18.7007 19.276C18.9562 19.1703 19.1883 19.0152 19.3838 18.8197C19.5792 18.6242 19.7343 18.3921 19.84 18.1367C19.9458 17.8812 20.0001 17.6074 20 17.331V6.75196C20.0001 6.47549 19.9458 6.20171 19.84 5.94626C19.7343 5.69081 19.5792 5.45871 19.3838 5.26321C19.1883 5.06772 18.9562 4.91267 18.7007 4.80693C18.4453 4.70119 18.1715 4.64683 17.895 4.64697Z" fill="#AEAEAE"/>
</svg>
