<svg width="24" height="24" viewBox="0 0 24 24" fill="none" xmlns="http://www.w3.org/2000/svg">
<path fill-rule="evenodd" clip-rule="evenodd" d="M10.061 3.18096C9.66599 2.78618 9.13047 2.56427 8.572 2.56396H4.106C3.54745 2.56396 3.01178 2.78585 2.61683 3.1808C2.22188 3.57575 2 4.11142 2 4.66997V5.64696H12.527L10.061 3.18096ZM19.895 6.64697H2V19.331C2 20.494 2.943 21.436 4.106 21.436H19.895C20.1715 21.4361 20.4453 21.3817 20.7007 21.276C20.9562 21.1703 21.1883 21.0152 21.3838 20.8197C21.5792 20.6242 21.7343 20.3921 21.84 20.1367C21.9458 19.8812 22.0001 19.6074 22 19.331V8.75196C22.0001 8.47549 21.9458 8.20171 21.84 7.94626C21.7343 7.69081 21.5792 7.45871 21.3838 7.26321C21.1883 7.06772 20.9562 6.91267 20.7007 6.80693C20.4453 6.70119 20.1715 6.64683 19.895 6.64697Z" fill="#A1929A"/>
</svg>
