<svg width="10" height="18" viewBox="0 0 10 18" fill="none" xmlns="http://www.w3.org/2000/svg">
<path fill-rule="evenodd" clip-rule="evenodd" d="M8.37495 17.1001C8.19769 17.1002 8.02216 17.0653 7.85844 16.9973C7.69472 16.9293 7.54604 16.8297 7.42095 16.7041L0.670952 9.9541C0.545546 9.82873 0.446067 9.67989 0.378196 9.51607C0.310324 9.35225 0.275391 9.17667 0.275391 8.99935C0.275391 8.82203 0.310324 8.64644 0.378196 8.48262C0.446067 8.31881 0.545546 8.16996 0.670952 8.0446L7.42095 1.2946C7.54533 1.16487 7.69436 1.06129 7.8593 0.98992C8.02424 0.918551 8.20177 0.880833 8.38148 0.878978C8.56119 0.877124 8.73946 0.91117 8.90584 0.97912C9.07221 1.04707 9.22335 1.14756 9.35038 1.27469C9.47741 1.40182 9.57778 1.55303 9.6456 1.71946C9.71342 1.88589 9.74732 2.06419 9.74533 2.2439C9.74333 2.42361 9.70547 2.60111 9.63398 2.76599C9.56248 2.93087 9.45877 3.07982 9.32895 3.2041L3.53445 9.0001L9.32895 14.7946C9.51803 14.9833 9.64686 15.2239 9.69915 15.4859C9.75144 15.7478 9.72483 16.0194 9.62269 16.2663C9.52055 16.5131 9.34747 16.7241 9.12536 16.8725C8.90325 17.021 8.64209 17.1002 8.37495 17.1001Z" fill="#A1929A"/>
</svg>
