<svg width="24" height="24" viewBox="0 0 24 24" fill="none" xmlns="http://www.w3.org/2000/svg">
<path d="M11 2C11 1.44772 11.4477 1 12 1C12.5523 1 13 1.44772 13 2V5C13 5.55228 12.5523 6 12 6C11.4477 6 11 5.55228 11 5V2Z" fill="#A1929A"/>
<path d="M17 12C17 14.7614 14.7614 17 12 17C9.23858 17 7 14.7614 7 12C7 9.23858 9.23858 7 12 7C14.7614 7 17 9.23858 17 12Z" fill="#A1929A"/>
<path d="M12 18C11.4477 18 11 18.4477 11 19V22C11 22.5523 11.4477 23 12 23C12.5523 23 13 22.5523 13 22V19C13 18.4477 12.5523 18 12 18Z" fill="#A1929A"/>
<path d="M22 11C22.5523 11 23 11.4477 23 12C23 12.5523 22.5523 13 22 13H19C18.4477 13 18 12.5523 18 12C18 11.4477 18.4477 11 19 11H22Z" fill="#A1929A"/>
<path d="M6 12C6 11.4477 5.55228 11 5 11H2C1.44772 11 1 11.4477 1 12C1 12.5523 1.44772 13 2 13H5C5.55228 13 6 12.5523 6 12Z" fill="#A1929A"/>
<path d="M18.3642 4.22176C18.7547 3.83123 19.3879 3.83123 19.7784 4.22176C20.1689 4.61228 20.1689 5.24544 19.7784 5.63597L17.6571 7.75729C17.2666 8.14781 16.6334 8.14781 16.2429 7.75729C15.8523 7.36676 15.8523 6.7336 16.2429 6.34308L18.3642 4.22176Z" fill="#A1929A"/>
<path d="M7.75691 16.2428C7.36639 15.8522 6.73322 15.8522 6.3427 16.2428L4.22138 18.3641C3.83085 18.7546 3.83085 19.3878 4.22138 19.7783C4.6119 20.1688 5.24507 20.1688 5.63559 19.7783L7.75691 17.657C8.14744 17.2664 8.14744 16.6333 7.75691 16.2428Z" fill="#A1929A"/>
<path d="M19.7782 18.3639C20.1688 18.7545 20.1688 19.3876 19.7782 19.7782C19.3877 20.1687 18.7546 20.1687 18.364 19.7782L16.2427 17.6568C15.8522 17.2663 15.8522 16.6331 16.2427 16.2426C16.6332 15.8521 17.2664 15.8521 17.6569 16.2426L19.7782 18.3639Z" fill="#A1929A"/>
<path d="M7.75774 7.7574C8.14826 7.36688 8.14826 6.73371 7.75774 6.34319L5.63642 4.22187C5.24589 3.83134 4.61273 3.83134 4.2222 4.22187C3.83168 4.61239 3.83168 5.24555 4.2222 5.63608L6.34352 7.7574C6.73405 8.14792 7.36721 8.14792 7.75774 7.7574Z" fill="#A1929A"/>
</svg>
