<svg width="24" height="24" viewBox="0 0 24 24" fill="none" xmlns="http://www.w3.org/2000/svg">
<g clip-path="url(#clip0_1303_20050)">
<path fill-rule="evenodd" clip-rule="evenodd" d="M21.3164 2.68396C20.1732 1.54338 18.6243 0.902832 17.0094 0.902832C15.3945 0.902832 13.8456 1.54338 12.7024 2.68396L10.6494 4.73596C10.4554 4.94475 10.3499 5.22064 10.3552 5.5056C10.3604 5.79056 10.4759 6.06238 10.6775 6.26391C10.879 6.46544 11.1508 6.58097 11.4358 6.5862C11.7207 6.59143 11.9966 6.48596 12.2054 6.29196L14.2584 4.23996C14.9886 3.51145 15.978 3.10232 17.0094 3.10232C18.0409 3.10232 19.0302 3.51145 19.7604 4.23996C20.1229 4.60035 20.4103 5.02905 20.606 5.50127C20.8017 5.97348 20.9017 6.47981 20.9004 6.99096C20.9018 7.50212 20.8018 8.00847 20.6061 8.48069C20.4104 8.95291 20.1229 9.38161 19.7604 9.74196L16.1594 13.343C14.6904 14.813 12.1274 14.813 10.6574 13.343C10.4141 13.1004 10.2039 12.8267 10.0324 12.529C9.88707 12.2759 9.64717 12.091 9.3655 12.0149C9.08382 11.9388 8.78343 11.9776 8.53041 12.123C8.27739 12.2683 8.09248 12.5082 8.01634 12.7899C7.9402 13.0716 7.97907 13.3719 8.12441 13.625C8.39141 14.088 8.71941 14.517 9.10141 14.899C9.66579 15.4662 10.337 15.9159 11.0763 16.2222C11.8156 16.5284 12.6082 16.685 13.4084 16.683C14.2086 16.6851 15.0013 16.5285 15.7406 16.2223C16.4799 15.9161 17.1511 15.4663 17.7154 14.899L21.3164 11.299C21.8839 10.7343 22.3338 10.0628 22.64 9.32314C22.9462 8.58351 23.1027 7.79048 23.1004 6.98996C23.1026 6.18976 22.946 5.39709 22.6398 4.65779C22.3335 3.9185 21.8837 3.24828 21.3164 2.68396Z" fill="#A1929A"/>
<path fill-rule="evenodd" clip-rule="evenodd" d="M11.7954 17.708L9.74241 19.761C9.01196 20.489 8.02271 20.8978 6.99141 20.8978C5.96011 20.8978 4.97086 20.489 4.24041 19.761C3.87814 19.4004 3.59088 18.9717 3.39522 18.4995C3.19955 18.0273 3.09935 17.5211 3.10041 17.01C3.10041 15.971 3.50541 14.994 4.24041 14.26L7.84141 10.658C8.26437 10.2359 8.77877 9.91679 9.3448 9.72535C9.91084 9.53391 10.5133 9.47527 11.1057 9.55397C11.698 9.63266 12.2643 9.84658 12.7607 10.1792C13.2571 10.5118 13.6703 10.9541 13.9684 11.472C14.0404 11.5972 14.1363 11.7071 14.2507 11.7953C14.3652 11.8835 14.4959 11.9483 14.6353 11.986C14.7748 12.0237 14.9203 12.0336 15.0636 12.0151C15.2069 11.9965 15.3451 11.9499 15.4704 11.878C15.5957 11.806 15.7056 11.7101 15.7938 11.5956C15.882 11.4812 15.9468 11.3505 15.9845 11.211C16.0222 11.0716 16.032 10.926 16.0135 10.7828C15.995 10.6395 15.9484 10.5012 15.8764 10.376C15.4095 9.56563 14.7625 8.87351 13.9854 8.35314C13.2084 7.83276 12.322 7.49807 11.3949 7.37492C10.4679 7.25177 9.52487 7.34348 8.63889 7.64294C7.75291 7.94241 6.94766 8.44161 6.28541 9.10196L2.68441 12.703C2.11716 13.2673 1.66743 13.9386 1.36122 14.6779C1.055 15.4171 0.89838 16.2098 0.90041 17.01C0.90041 18.637 1.53441 20.167 2.68441 21.317C3.24944 21.8831 3.92086 22.332 4.66004 22.6376C5.39921 22.9433 6.19153 23.0997 6.99141 23.098C8.55141 23.098 10.1104 22.504 11.2984 21.318L13.3514 19.265C13.5454 19.0562 13.6509 18.7803 13.6456 18.4953C13.6404 18.2104 13.5249 17.9385 13.3234 17.737C13.1218 17.5355 12.85 17.42 12.565 17.4147C12.2801 17.4095 12.0042 17.514 11.7954 17.708Z" fill="#A1929A"/>
</g>
<defs>
<clipPath id="clip0_1303_20050">
<rect width="24" height="24" fill="white"/>
</clipPath>
</defs>
</svg>
