<svg width="20" height="20" viewBox="0 0 20 20" fill="none" xmlns="http://www.w3.org/2000/svg">
<g clip-path="url(#clip0_363_615)">
<path fill-rule="evenodd" clip-rule="evenodd" d="M17.7634 2.23623C16.8107 1.28575 15.5199 0.751953 14.1742 0.751953C12.8285 0.751953 11.5377 1.28575 10.585 2.23623L8.87419 3.94623C8.71252 4.12022 8.62463 4.35013 8.62899 4.58759C8.63335 4.82506 8.72962 5.05158 8.89756 5.21952C9.0655 5.38746 9.29203 5.48374 9.52949 5.4881C9.76696 5.49246 9.99686 5.40456 10.1709 5.2429L11.8817 3.5329C12.4902 2.9258 13.3146 2.58486 14.1742 2.58486C15.0337 2.58486 15.8582 2.9258 16.4667 3.5329C16.7688 3.83321 17.0083 4.19047 17.1713 4.58398C17.3344 4.97749 17.4178 5.39944 17.4167 5.8254C17.4178 6.25136 17.3345 6.67332 17.1714 7.06684C17.0083 7.46035 16.7688 7.8176 16.4667 8.1179L13.4659 11.1187C12.2417 12.3437 10.1059 12.3437 8.88085 11.1187C8.67808 10.9166 8.50295 10.6885 8.36002 10.4404C8.23891 10.2295 8.03899 10.0755 7.80426 10.012C7.56953 9.94855 7.3192 9.98095 7.10835 10.1021C6.89751 10.2232 6.74341 10.4231 6.67996 10.6578C6.61651 10.8926 6.64891 11.1429 6.77002 11.3537C6.99252 11.7396 7.26585 12.0971 7.58419 12.4154C8.05451 12.8881 8.61387 13.2629 9.22993 13.5181C9.846 13.7732 10.5065 13.9038 11.1734 13.9021C11.8402 13.9038 12.5008 13.7734 13.1168 13.5182C13.7329 13.263 14.2923 12.8882 14.7625 12.4154L17.7634 9.4154C18.2363 8.94488 18.6112 8.38524 18.8663 7.76888C19.1215 7.15252 19.2519 6.49166 19.25 5.82456C19.2518 5.15773 19.1213 4.49716 18.8661 3.88109C18.611 3.26501 18.2361 2.70566 17.7634 2.2354" fill="#AEAEAE"/>
<path fill-rule="evenodd" clip-rule="evenodd" d="M9.82918 14.7567L8.11835 16.4675C7.50964 17.0742 6.68527 17.4149 5.82585 17.4149C4.96643 17.4149 4.14206 17.0742 3.53335 16.4675C3.23146 16.1671 2.99208 15.8098 2.82902 15.4163C2.66597 15.0228 2.58247 14.6009 2.58335 14.175C2.58335 13.3092 2.92085 12.495 3.53335 11.8834L6.53418 8.88169C6.88665 8.52996 7.31532 8.26404 7.78701 8.10451C8.25871 7.94498 8.76078 7.89611 9.25438 7.96169C9.74799 8.02727 10.2199 8.20553 10.6336 8.48269C11.0472 8.75985 11.3916 9.12847 11.64 9.56002C11.7 9.66442 11.7799 9.75599 11.8753 9.82949C11.9706 9.903 12.0795 9.957 12.1958 9.98842C12.312 10.0198 12.4333 10.0281 12.5527 10.0126C12.6721 9.99714 12.7873 9.95832 12.8917 9.89835C12.9961 9.83838 13.0877 9.75844 13.1612 9.66308C13.2347 9.56772 13.2887 9.45882 13.3201 9.34259C13.3515 9.22636 13.3597 9.10509 13.3443 8.98568C13.3288 8.86628 13.29 8.75109 13.23 8.64669C12.8409 7.97141 12.3018 7.39465 11.6542 6.961C11.0066 6.52736 10.268 6.24844 9.49545 6.14582C8.72289 6.0432 7.93707 6.11962 7.19875 6.36917C6.46043 6.61873 5.78939 7.03473 5.23752 7.58502L2.23668 10.5859C1.76398 11.0562 1.3892 11.6155 1.13402 12.2316C0.878842 12.8477 0.748325 13.5082 0.750016 14.175C0.750016 15.5309 1.27835 16.8059 2.23668 17.7642C2.70754 18.236 3.26706 18.61 3.88304 18.8647C4.49901 19.1194 5.15929 19.2498 5.82585 19.2484C7.12585 19.2484 8.42502 18.7534 9.41502 17.765L11.1258 16.0542C11.2875 15.8802 11.3754 15.6503 11.371 15.4128C11.3667 15.1754 11.2704 14.9488 11.1025 14.7809C10.9345 14.613 10.708 14.5167 10.4705 14.5123C10.2331 14.508 10.0032 14.5959 9.82918 14.7575" fill="#AEAEAE"/>
</g>
<defs>
<clipPath id="clip0_363_615">
<rect width="20" height="20" fill="white"/>
</clipPath>
</defs>
</svg>
