<svg width="130" height="32" viewBox="0 0 130 32" fill="none" xmlns="http://www.w3.org/2000/svg">
<path d="M7.4668 8.17776C7.4668 6.99955 8.42192 6.04443 9.60012 6.04443H22.4001C23.5783 6.04443 24.5334 6.99955 24.5334 8.17776V9.59997C24.5334 10.7782 23.5783 11.7333 22.4001 11.7333H7.4668V8.17776Z" fill="black"/>
<path d="M7.4668 15.2888C7.4668 14.1106 8.42192 13.1555 9.60012 13.1555H18.1334C19.3116 13.1555 20.2667 14.1106 20.2667 15.2888V16.7111C20.2667 17.8893 19.3116 18.8444 18.1334 18.8444H7.4668V15.2888Z" fill="black"/>
<path d="M7.4668 22.3999C7.4668 21.2217 8.42192 20.2666 9.60012 20.2666H11.0223C12.2005 20.2666 13.1557 21.2217 13.1557 22.3999V23.8221C13.1557 25.0003 12.2005 25.9555 11.0223 25.9555H7.4668V22.3999Z" fill="black"/>
<path d="M45.62 17.6868H40.18V23.6667H37.62V9.04682H46.6599V11.4068H40.18V15.3868H45.62V17.6868ZM52.2659 23.9267C49.3259 23.9267 47.2659 21.7868 47.2659 18.7268C47.2659 15.6268 49.2859 13.4868 52.1859 13.4868C55.1458 13.4868 57.0258 15.4668 57.0258 18.5468V19.2868L49.5859 19.3068C49.7659 21.0468 50.6859 21.9268 52.3059 21.9268C53.6458 21.9268 54.5258 21.4068 54.8058 20.4668H57.0658C56.6458 22.6268 54.8458 23.9267 52.2659 23.9267ZM52.2059 15.4868C50.7659 15.4868 49.8859 16.2668 49.6459 17.7468H54.6058C54.6058 16.3868 53.6658 15.4868 52.2059 15.4868ZM63.3986 23.9267C60.4586 23.9267 58.3986 21.7868 58.3986 18.7268C58.3986 15.6268 60.4186 13.4868 63.3186 13.4868C66.2786 13.4868 68.1586 15.4668 68.1586 18.5468V19.2868L60.7186 19.3068C60.8986 21.0468 61.8186 21.9268 63.4386 21.9268C64.7786 21.9268 65.6586 21.4068 65.9386 20.4668H68.1986C67.7786 22.6268 65.9786 23.9267 63.3986 23.9267ZM63.3386 15.4868C61.8986 15.4868 61.0186 16.2668 60.7786 17.7468H65.7386C65.7386 16.3868 64.7986 15.4868 63.3386 15.4868ZM74.1714 23.9267C71.3114 23.9267 69.5314 21.8268 69.5314 18.7668C69.5314 15.6868 71.3314 13.4868 74.3114 13.4868C75.6914 13.4868 76.9113 14.0668 77.5313 15.0468V8.78683H79.9513V23.6667H77.7113L77.5513 22.1268C76.9513 23.2668 75.6714 23.9267 74.1714 23.9267ZM74.7114 21.6868C76.4114 21.6868 77.5113 20.4668 77.5113 18.6868C77.5113 16.9068 76.4114 15.6668 74.7114 15.6668C73.0114 15.6668 71.9714 16.9268 71.9714 18.6868C71.9714 20.4468 73.0114 21.6868 74.7114 21.6868ZM81.9141 18.7068C81.9141 15.6268 84.1341 13.5068 87.1941 13.5068C90.2541 13.5068 92.4741 15.6268 92.4741 18.7068C92.4741 21.7868 90.2541 23.9067 87.1941 23.9067C84.1341 23.9067 81.9141 21.7868 81.9141 18.7068ZM84.3541 18.7068C84.3541 20.5068 85.5141 21.7268 87.1941 21.7268C88.8741 21.7268 90.0341 20.5068 90.0341 18.7068C90.0341 16.9068 88.8741 15.6868 87.1941 15.6868C85.5141 15.6868 84.3541 16.9068 84.3541 18.7068ZM93.8281 18.7068C93.8281 15.6268 96.0481 13.5068 99.1081 13.5068C102.168 13.5068 104.388 15.6268 104.388 18.7068C104.388 21.7868 102.168 23.9067 99.1081 23.9067C96.0481 23.9067 93.8281 21.7868 93.8281 18.7068ZM96.2681 18.7068C96.2681 20.5068 97.4281 21.7268 99.1081 21.7268C100.788 21.7268 101.948 20.5068 101.948 18.7068C101.948 16.9068 100.788 15.6868 99.1081 15.6868C97.4281 15.6868 96.2681 16.9068 96.2681 18.7068ZM108.762 23.6667H106.322V13.7868H108.582L108.782 15.0668C109.402 14.0668 110.602 13.4868 111.942 13.4868C114.422 13.4868 115.702 15.0268 115.702 17.5868V23.6667H113.262V18.1668C113.262 16.5068 112.442 15.7068 111.182 15.7068C109.682 15.7068 108.762 16.7468 108.762 18.3468V23.6667ZM117.539 18.5068C117.539 15.6268 119.419 13.4668 122.239 13.4668C123.719 13.4668 124.879 14.0868 125.459 15.1468L125.599 13.7868H127.859V23.1668C127.859 26.4667 125.879 28.5267 122.679 28.5267C119.839 28.5267 117.899 26.9067 117.599 24.2667H120.039C120.199 25.5467 121.179 26.3067 122.679 26.3067C124.359 26.3067 125.439 25.2467 125.439 23.6067V21.9668C124.819 22.8868 123.599 23.4667 122.179 23.4667C119.379 23.4667 117.539 21.3668 117.539 18.5068ZM119.999 18.4468C119.999 20.1068 121.059 21.3468 122.659 21.3468C124.339 21.3468 125.379 20.1668 125.379 18.4468C125.379 16.7668 124.359 15.6068 122.659 15.6068C121.039 15.6068 119.999 16.8268 119.999 18.4468Z" fill="black"/>
</svg>
