<svg width="20" height="18" viewBox="0 0 20 18" fill="none" xmlns="http://www.w3.org/2000/svg">
<path fill-rule="evenodd" clip-rule="evenodd" d="M2.11797 3.1998H18.118C18.4362 3.1998 18.7415 3.07338 18.9665 2.84833C19.1915 2.62329 19.318 2.31806 19.318 1.9998C19.318 1.68154 19.1915 1.37632 18.9665 1.15128C18.7415 0.926233 18.4362 0.799805 18.118 0.799805H2.11797C1.79971 0.799805 1.49448 0.926233 1.26944 1.15128C1.0444 1.37632 0.917969 1.68154 0.917969 1.9998C0.917969 2.31806 1.0444 2.62329 1.26944 2.84833C1.49448 3.07338 1.79971 3.1998 2.11797 3.1998ZM18.118 7.7998H2.11797C1.79971 7.7998 1.49448 7.92623 1.26944 8.15128C1.0444 8.37632 0.917969 8.68154 0.917969 8.9998C0.917969 9.31806 1.0444 9.62329 1.26944 9.84833C1.49448 10.0734 1.79971 10.1998 2.11797 10.1998H18.118C18.4362 10.1998 18.7415 10.0734 18.9665 9.84833C19.1915 9.62329 19.318 9.31806 19.318 8.9998C19.318 8.68154 19.1915 8.37632 18.9665 8.15128C18.7415 7.92623 18.4362 7.7998 18.118 7.7998ZM18.118 14.7998H2.11797C1.96038 14.7998 1.80434 14.8308 1.65875 14.8911C1.51316 14.9515 1.38087 15.0398 1.26944 15.1513C1.15801 15.2627 1.06962 15.395 1.00931 15.5406C0.949008 15.6862 0.917969 15.8422 0.917969 15.9998C0.917969 16.1574 0.949008 16.3134 1.00931 16.459C1.06962 16.6046 1.15801 16.7369 1.26944 16.8483C1.38087 16.9598 1.51316 17.0482 1.65875 17.1085C1.80434 17.1688 1.96038 17.1998 2.11797 17.1998H18.118C18.2756 17.1998 18.4316 17.1688 18.5772 17.1085C18.7228 17.0482 18.8551 16.9598 18.9665 16.8483C19.0779 16.7369 19.1663 16.6046 19.2266 16.459C19.2869 16.3134 19.318 16.1574 19.318 15.9998C19.318 15.8422 19.2869 15.6862 19.2266 15.5406C19.1663 15.395 19.0779 15.2627 18.9665 15.1513C18.8551 15.0398 18.7228 14.9515 18.5772 14.8911C18.4316 14.8308 18.2756 14.7998 18.118 14.7998Z" fill="white"/>
</svg>
