<svg width="20" height="20" viewBox="0 0 20 20" fill="none" xmlns="http://www.w3.org/2000/svg">
<path fill-rule="evenodd" clip-rule="evenodd" d="M14.3388 8.51217L9.68634 13.1655C9.5296 13.3212 9.31766 13.4085 9.09676 13.4085C8.87585 13.4085 8.66391 13.3212 8.50717 13.1655L5.66051 10.3188C5.58314 10.2415 5.52176 10.1496 5.47989 10.0485C5.43802 9.94744 5.41647 9.83909 5.41647 9.72967C5.41647 9.50869 5.50425 9.29676 5.66051 9.14051C5.81676 8.98425 6.02869 8.89647 6.24967 8.89647C6.47065 8.89647 6.68258 8.98425 6.83884 9.14051L9.09634 11.398L13.1605 7.33384C13.2379 7.25647 13.3297 7.1951 13.4308 7.15322C13.5319 7.11135 13.6403 7.0898 13.7497 7.0898C13.8591 7.0898 13.9674 7.11135 14.0685 7.15322C14.1696 7.1951 14.2615 7.25647 14.3388 7.33384C14.4162 7.41121 14.4776 7.50306 14.5195 7.60415C14.5613 7.70524 14.5829 7.81359 14.5829 7.92301C14.5829 8.03243 14.5613 8.14077 14.5195 8.24186C14.4776 8.34295 14.4162 8.4348 14.3388 8.51217ZM9.99967 0.833008C4.93717 0.833008 0.833008 4.93717 0.833008 9.99967C0.833008 15.0622 4.93717 19.1663 9.99967 19.1663C15.0622 19.1663 19.1663 15.0622 19.1663 9.99967C19.1663 4.93717 15.0622 0.833008 9.99967 0.833008Z" fill="#3872E0"/>
</svg>
