<svg width="10" height="18" viewBox="0 0 10 18" fill="none" xmlns="http://www.w3.org/2000/svg">
<path fill-rule="evenodd" clip-rule="evenodd" d="M1.62504 17.1C1.28004 17.1 0.935045 16.965 0.665045 16.71C0.413149 16.457 0.271729 16.1145 0.271729 15.7575C0.271729 15.4005 0.413149 15.058 0.665045 14.805L6.47004 9L0.665045 3.21C0.413149 2.957 0.271729 2.61452 0.271729 2.2575C0.271729 1.90048 0.413149 1.558 0.665045 1.305C0.918047 1.0531 1.26053 0.911682 1.61754 0.911682C1.97456 0.911682 2.31704 1.0531 2.57004 1.305L9.32004 8.055C9.57194 8.308 9.71336 8.65048 9.71336 9.0075C9.71336 9.36452 9.57194 9.707 9.32004 9.96L2.57004 16.71C2.31504 16.965 1.97004 17.1 1.62504 17.1Z" fill="#AEAEAE"/>
</svg>
