<svg width="18" height="20" viewBox="0 0 18 20" fill="none" xmlns="http://www.w3.org/2000/svg">
<path fill-rule="evenodd" clip-rule="evenodd" d="M8.99997 13.056C8.59873 13.056 8.20142 12.977 7.83072 12.8234C7.46002 12.6699 7.12319 12.4448 6.83947 12.1611C6.55575 11.8774 6.33069 11.5405 6.17714 11.1698C6.02359 10.7991 5.94456 10.4018 5.94456 10.0006C5.94456 9.59934 6.02359 9.20202 6.17714 8.83132C6.33069 8.46062 6.55575 8.12379 6.83947 7.84007C7.12319 7.55635 7.46002 7.33129 7.83072 7.17774C8.20142 7.02419 8.59873 6.94516 8.99997 6.94516C9.81032 6.94516 10.5875 7.26707 11.1605 7.84007C11.7335 8.41307 12.0554 9.19023 12.0554 10.0006C12.0554 10.8109 11.7335 11.5881 11.1605 12.1611C10.5875 12.7341 9.81032 13.056 8.99997 13.056ZM16.5275 11.6268C16.1083 11.1928 15.8743 10.6127 15.875 10.0093V9.99183C15.8743 9.38842 16.1083 8.80839 16.5275 8.37433L17.31 7.566C17.6316 7.23266 17.6933 6.726 17.4625 6.32516L16.4141 4.51016C16.3016 4.31478 16.1285 4.16141 15.921 4.07329C15.7134 3.98517 15.4829 3.9671 15.2641 4.02183L14.1683 4.29516C13.5798 4.4425 12.9571 4.35366 12.4333 4.04766L12.4183 4.03933C11.9024 3.73951 11.5228 3.25146 11.3591 2.67766L11.0458 1.58683C10.984 1.3699 10.8532 1.17901 10.6732 1.04308C10.4933 0.907141 10.2739 0.833567 10.0483 0.833496H7.95164C7.48914 0.833496 7.08081 1.141 6.95414 1.58683L6.61664 2.761C6.46845 3.28576 6.12012 3.73135 5.64664 4.00183C5.59773 4.02918 5.54939 4.05751 5.50164 4.08683C5.02656 4.36974 4.45879 4.45304 3.92247 4.3185L2.73497 4.02183C2.51635 3.96717 2.28587 3.98518 2.07839 4.07313C1.87091 4.16108 1.69771 4.3142 1.58497 4.50933L0.537473 6.32516C0.424805 6.52052 0.37875 6.74724 0.40626 6.97108C0.43377 7.19492 0.533352 7.40373 0.689974 7.566L1.47247 8.37433C1.89164 8.8085 2.12581 9.3885 2.12581 9.991V10.0093C2.12581 10.6127 1.89164 11.1927 1.47247 11.6268L1.05331 12.0602C0.791913 12.3304 0.625639 12.6785 0.579632 13.0516C0.533624 13.4248 0.610386 13.8028 0.798307 14.1285L1.58581 15.491C1.81747 15.8927 2.28581 16.0918 2.73581 15.9793L3.92331 15.6827C4.45962 15.5481 5.0274 15.6314 5.50247 15.9143C5.54997 15.9435 5.59831 15.9718 5.64747 15.9993C6.12164 16.2677 6.46747 16.7152 6.61747 17.2402L6.95414 18.4143C7.08081 18.8602 7.48914 19.1668 7.95164 19.1668H10.0483C10.5108 19.1668 10.9191 18.8602 11.0458 18.4143L11.3825 17.2402C11.5325 16.7152 11.8783 16.2677 12.3525 15.9993C12.4016 15.9718 12.45 15.9435 12.4975 15.9143C12.9726 15.6314 13.5403 15.5481 14.0766 15.6827L15.2641 15.9793C15.4828 16.034 15.7132 16.016 15.9207 15.928C16.1282 15.8401 16.3014 15.687 16.4141 15.4918L17.4625 13.676C17.5751 13.4806 17.6212 13.2539 17.5937 13.0301C17.5662 12.8062 17.4666 12.5974 17.31 12.4352L16.5266 11.6268H16.5275Z" fill="#AEAEAE"/>
</svg>
