<svg width="24" height="24" viewBox="0 0 24 24" fill="none" xmlns="http://www.w3.org/2000/svg">
<path fill-rule="evenodd" clip-rule="evenodd" d="M11.9995 15.667C11.518 15.667 11.0412 15.5722 10.5964 15.3879C10.1516 15.2036 9.74736 14.9336 9.4069 14.5931C9.06643 14.2526 8.79636 13.8484 8.6121 13.4036C8.42784 12.9588 8.333 12.482 8.333 12.0005C8.333 11.519 8.42784 11.0422 8.6121 10.5974C8.79636 10.1526 9.06643 9.74836 9.4069 9.40789C9.74736 9.06743 10.1516 8.79735 10.5964 8.6131C11.0412 8.42884 11.518 8.334 11.9995 8.334C12.9719 8.334 13.9045 8.72029 14.5921 9.40789C15.2797 10.0955 15.666 11.0281 15.666 12.0005C15.666 12.9729 15.2797 13.9055 14.5921 14.5931C13.9045 15.2807 12.9719 15.667 11.9995 15.667ZM21.0325 13.952C20.5295 13.4311 20.2487 12.7351 20.2495 12.011V11.99C20.2487 11.2659 20.5295 10.5699 21.0325 10.049L21.9715 9.079C22.3575 8.679 22.4315 8.071 22.1545 7.59L20.8965 5.412C20.7615 5.17755 20.5537 4.9935 20.3047 4.88775C20.0557 4.78201 19.779 4.76033 19.5165 4.826L18.2015 5.154C17.4954 5.3308 16.7481 5.2242 16.1195 4.857L16.1015 4.847C15.4824 4.48722 15.0269 3.90155 14.8305 3.213L14.4545 1.904C14.3804 1.64368 14.2234 1.41462 14.0074 1.2515C13.7914 1.08837 13.5282 1.00008 13.2575 1H10.7415C10.1865 1 9.6965 1.369 9.5445 1.904L9.1395 3.313C8.96168 3.94272 8.54368 4.47743 7.9755 4.802C7.91682 4.83482 7.85881 4.86882 7.8015 4.904C7.23141 5.2435 6.55009 5.34345 5.9065 5.182L4.4815 4.826C4.21916 4.76041 3.94258 4.78202 3.69361 4.88756C3.44463 4.99311 3.23679 5.17685 3.1015 5.411L1.8445 7.59C1.7093 7.82444 1.65404 8.09649 1.68705 8.3651C1.72006 8.6337 1.83956 8.88428 2.0275 9.079L2.9665 10.049C3.4695 10.57 3.7505 11.266 3.7505 11.989V12.011C3.7505 12.735 3.4695 13.431 2.9665 13.952L2.4635 14.472C2.14983 14.7963 1.9503 15.214 1.89509 15.6618C1.83989 16.1096 1.932 16.5632 2.1575 16.954L3.1025 18.589C3.3805 19.071 3.9425 19.31 4.4825 19.175L5.9075 18.819C6.55109 18.6576 7.23241 18.7575 7.8025 19.097C7.8595 19.132 7.9175 19.166 7.9765 19.199C8.5455 19.521 8.9605 20.058 9.1405 20.688L9.5445 22.097C9.6965 22.632 10.1865 23 10.7415 23H13.2575C13.8125 23 14.3025 22.632 14.4545 22.097L14.8585 20.688C15.0385 20.058 15.4535 19.521 16.0225 19.199C16.0815 19.166 16.1395 19.132 16.1965 19.097C16.7666 18.7575 17.4479 18.6576 18.0915 18.819L19.5165 19.175C19.7789 19.2406 20.0554 19.219 20.3044 19.1134C20.5534 19.0079 20.7612 18.8242 20.8965 18.59L22.1545 16.411C22.2897 16.1766 22.345 15.9045 22.312 15.6359C22.2789 15.3673 22.1595 15.1167 21.9715 14.922L21.0315 13.952H21.0325Z" fill="#A1929A"/>
</svg>
