<svg width="16" height="16" viewBox="0 0 16 16" fill="none" xmlns="http://www.w3.org/2000/svg">
<path d="M8.72666 2.81665L8 1L7.27334 2.81665C6.46021 4.84947 4.84947 6.46021 2.81665 7.27334L1 8L3.43288 9.21644C5.09251 10.0463 6.41207 11.4272 7.16567 13.1228L8 15L8.83433 13.1228C9.58793 11.4272 10.9075 10.0463 12.5671 9.21644L15 8L13.1833 7.27334C11.1505 6.46021 9.53979 4.84947 8.72666 2.81665Z" stroke="#8C8C8C" stroke-width="2" stroke-linecap="round" stroke-linejoin="round"/>
<path d="M2.10381 1.25952L2 1L1.89619 1.25952C1.78003 1.54992 1.54992 1.78003 1.25952 1.89619L1 2L1.34755 2.17378C1.58464 2.29232 1.77315 2.48959 1.88081 2.73182L2 3L2.11919 2.73182C2.22685 2.48959 2.41536 2.29232 2.65245 2.17378L3 2L2.74048 1.89619C2.45008 1.78003 2.21997 1.54992 2.10381 1.25952Z" stroke="#8C8C8C" stroke-width="2" stroke-linecap="round" stroke-linejoin="round"/>
<path d="M2.10381 13.2595L2 13L1.89619 13.2595C1.78003 13.5499 1.54992 13.78 1.25952 13.8962L1 14L1.34755 14.1738C1.58464 14.2923 1.77315 14.4896 1.88081 14.7318L2 15L2.11919 14.7318C2.22685 14.4896 2.41536 14.2923 2.65245 14.1738L3 14L2.74048 13.8962C2.45008 13.78 2.21997 13.5499 2.10381 13.2595Z" stroke="#8C8C8C" stroke-width="2" stroke-linecap="round" stroke-linejoin="round"/>
</svg>
