<svg width="22" height="22" viewBox="0 0 22 22" fill="none" xmlns="http://www.w3.org/2000/svg">
<path fill-rule="evenodd" clip-rule="evenodd" d="M15.9799 11.747C15.7747 11.7522 15.5705 11.7162 15.3794 11.6412C15.1883 11.5662 15.0142 11.4538 14.8673 11.3104C14.7203 11.1671 14.6035 10.9958 14.5238 10.8066C14.4441 10.6175 14.4031 10.4143 14.4032 10.209C14.4033 10.0037 14.4444 9.80053 14.5242 9.61141C14.6041 9.4223 14.7209 9.25107 14.868 9.10783C15.015 8.96459 15.1892 8.85223 15.3804 8.77738C15.5715 8.70253 15.7757 8.6667 15.9809 8.672C16.3819 8.68236 16.7629 8.84895 17.0428 9.13627C17.3227 9.42358 17.4793 9.80888 17.4792 10.21C17.4791 10.6111 17.3222 10.9963 17.0421 11.2834C16.7621 11.5706 16.3809 11.7369 15.9799 11.747ZM11.0659 11.747C10.8606 11.7522 10.6563 11.7162 10.465 11.6412C10.2738 11.5661 10.0996 11.4536 9.95254 11.3102C9.8055 11.1667 9.68866 10.9953 9.60891 10.806C9.52916 10.6167 9.48811 10.4134 9.48817 10.208C9.48824 10.0026 9.52943 9.79927 9.6093 9.61003C9.68917 9.42079 9.80612 9.24945 9.95325 9.10612C10.1004 8.96279 10.2747 8.85036 10.466 8.77546C10.6572 8.70055 10.8616 8.6647 11.0669 8.67C11.4681 8.68036 11.8495 8.84706 12.1295 9.13457C12.4096 9.42207 12.5663 9.80761 12.5662 10.209C12.566 10.6104 12.4091 10.9958 12.1288 11.2831C11.8486 11.5704 11.4671 11.7369 11.0659 11.747ZM6.1509 11.747C5.94569 11.7522 5.74152 11.7162 5.55043 11.6412C5.35934 11.5662 5.18519 11.4538 5.03825 11.3104C4.89131 11.1671 4.77455 10.9958 4.69485 10.8066C4.61515 10.6175 4.57412 10.4143 4.57419 10.209C4.57425 10.0037 4.61541 9.80053 4.69524 9.61141C4.77506 9.4223 4.89193 9.25107 5.03897 9.10783C5.186 8.96459 5.36022 8.85223 5.55136 8.77738C5.7425 8.70253 5.94669 8.6667 6.1519 8.672C6.55288 8.68236 6.93395 8.84895 7.21384 9.13627C7.49374 9.42358 7.65032 9.80888 7.65019 10.21C7.65006 10.6111 7.49323 10.9963 7.21314 11.2834C6.93306 11.5706 6.55188 11.7369 6.1509 11.747ZM10.9999 0.5C5.1669 0.5 0.420898 4.814 0.420898 10.117C0.420898 12.387 1.3809 15.476 4.0549 17.47L3.7399 20.764C3.72807 20.8854 3.7495 21.0077 3.80189 21.1178C3.85427 21.228 3.93565 21.3218 4.03728 21.3892C4.13891 21.4566 4.25698 21.4951 4.37881 21.5005C4.50065 21.5059 4.62167 21.4781 4.7289 21.42L8.1599 19.574C8.5869 19.618 9.8409 19.734 10.9999 19.734C16.8329 19.734 21.5789 15.42 21.5789 10.117C21.5789 4.814 16.8329 0.5 10.9999 0.5Z" fill="#AEAEAE"/>
</svg>
