<svg width="19" height="18" viewBox="0 0 19 18" fill="none" xmlns="http://www.w3.org/2000/svg">
<path fill-rule="evenodd" clip-rule="evenodd" d="M9.50004 14.9925C9.36872 14.9925 9.23869 14.9666 9.11736 14.9164C8.99604 14.8661 8.8858 14.7925 8.79294 14.6996C8.70008 14.6067 8.62642 14.4965 8.57616 14.3752C8.52591 14.2539 8.50004 14.1238 8.50004 13.9925C8.50004 13.8612 8.52591 13.7311 8.57616 13.6098C8.62642 13.4885 8.70008 13.3783 8.79294 13.2854C8.8858 13.1925 8.99604 13.1189 9.11736 13.0686C9.23869 13.0184 9.36872 12.9925 9.50004 12.9925C9.76526 12.9925 10.0196 13.0979 10.2072 13.2854C10.3947 13.4729 10.5 13.7273 10.5 13.9925C10.5 14.2577 10.3947 14.5121 10.2072 14.6996C10.0196 14.8871 9.76526 14.9925 9.50004 14.9925ZM8.66671 6.67333C8.66671 6.45232 8.75451 6.24036 8.91079 6.08408C9.06707 5.9278 9.27903 5.84 9.50004 5.84C9.72106 5.84 9.93302 5.9278 10.0893 6.08408C10.2456 6.24036 10.3334 6.45232 10.3334 6.67333V10.84C10.3334 11.061 10.2456 11.273 10.0893 11.4293C9.93302 11.5855 9.72106 11.6733 9.50004 11.6733C9.27903 11.6733 9.06707 11.5855 8.91079 11.4293C8.75451 11.273 8.66671 11.061 8.66671 10.84V6.67333ZM18.595 14.6792L11.2325 1.92667C10.4625 0.593333 8.53754 0.593333 7.76754 1.92667L0.405044 14.6792C-0.364123 16.0125 0.596711 17.6792 2.13754 17.6792H16.8625C18.4025 17.6792 19.3642 16.0125 18.595 14.6792Z" fill="white"/>
</svg>
