<svg width="19" height="20" viewBox="0 0 19 20" fill="none" xmlns="http://www.w3.org/2000/svg">
<path fill-rule="evenodd" clip-rule="evenodd" d="M13.8391 8.5125L9.18658 13.1658C9.02985 13.3215 8.81791 13.4089 8.597 13.4089C8.3761 13.4089 8.16416 13.3215 8.00742 13.1658L5.16075 10.3192C5.08338 10.2418 5.02201 10.1499 4.98013 10.0489C4.93826 9.94776 4.91671 9.83942 4.91671 9.73C4.91671 9.50902 5.0045 9.29709 5.16075 9.14083C5.31701 8.98457 5.52894 8.89679 5.74992 8.89679C5.9709 8.89679 6.18283 8.98457 6.33908 9.14083L8.59659 11.3983L12.6608 7.33416C12.7381 7.25679 12.83 7.19542 12.9311 7.15355C13.0322 7.11168 13.1405 7.09012 13.2499 7.09012C13.3593 7.09012 13.4677 7.11168 13.5688 7.15355C13.6699 7.19542 13.7617 7.25679 13.8391 7.33416C13.9165 7.41153 13.9778 7.50339 14.0197 7.60448C14.0616 7.70557 14.0831 7.81391 14.0831 7.92333C14.0831 8.03275 14.0616 8.1411 14.0197 8.24219C13.9778 8.34328 13.9165 8.43513 13.8391 8.5125ZM9.49992 0.833332C4.43742 0.833332 0.333252 4.9375 0.333252 10C0.333252 15.0625 4.43742 19.1667 9.49992 19.1667C14.5624 19.1667 18.6666 15.0625 18.6666 10C18.6666 4.9375 14.5624 0.833332 9.49992 0.833332Z" fill="white"/>
</svg>
