<svg width="24" height="24" viewBox="0 0 24 24" fill="none" xmlns="http://www.w3.org/2000/svg">
<path fill-rule="evenodd" clip-rule="evenodd" d="M15.066 16.7359C15.066 16.9746 14.9712 17.2035 14.8024 17.3723C14.6336 17.5411 14.4047 17.6359 14.166 17.6359C13.9273 17.6359 13.6984 17.5411 13.5296 17.3723C13.3608 17.2035 13.266 16.9746 13.266 16.7359V11.7299C13.266 11.4912 13.3608 11.2623 13.5296 11.0935C13.6984 10.9247 13.9273 10.8299 14.166 10.8299C14.4047 10.8299 14.6336 10.9247 14.8024 11.0935C14.9712 11.2623 15.066 11.4912 15.066 11.7299V16.7359ZM10.933 16.7359C10.933 16.9746 10.8382 17.2035 10.6694 17.3723C10.5006 17.5411 10.2717 17.6359 10.033 17.6359C9.79431 17.6359 9.56539 17.5411 9.3966 17.3723C9.22782 17.2035 9.133 16.9746 9.133 16.7359V11.7299C9.133 11.4912 9.22782 11.2623 9.3966 11.0935C9.56539 10.9247 9.79431 10.8299 10.033 10.8299C10.2717 10.8299 10.5006 10.9247 10.6694 11.0935C10.8382 11.2623 10.933 11.4912 10.933 11.7299V16.7359ZM9.029 3.85889C9.029 3.59367 9.13436 3.33932 9.32189 3.15178C9.50943 2.96424 9.76378 2.85889 10.029 2.85889H14.173C14.724 2.85889 15.173 3.30689 15.173 3.85889V4.79989H9.029V3.85889ZM20.299 4.79989H17.173V3.85889C17.173 2.20489 15.828 0.858887 14.173 0.858887H10.029C8.375 0.858887 7.029 2.20489 7.029 3.85889V4.79989H3.7C3.38174 4.79989 3.07652 4.92631 2.85147 5.15136C2.62643 5.3764 2.5 5.68163 2.5 5.99989V6.59989C2.5 6.91815 2.62643 7.22337 2.85147 7.44841C3.07652 7.67346 3.38174 7.79989 3.7 7.79989H3.831L4.303 19.8359C4.32755 20.4556 4.59107 21.0418 5.03831 21.4715C5.48555 21.9012 6.08178 22.1411 6.702 22.1409H17.498C18.118 22.1411 18.714 21.9011 19.161 21.4714C19.6079 21.0416 19.871 20.4554 19.895 19.8359L20.369 7.78589C20.6734 7.77029 20.9603 7.63867 21.1706 7.41808C21.381 7.19749 21.4989 6.9047 21.5 6.59989V5.99989C21.5 5.33789 20.962 4.79989 20.299 4.79989Z" fill="#A1929A"/>
</svg>
