<svg width="20" height="20" viewBox="0 0 20 20" fill="none" xmlns="http://www.w3.org/2000/svg">
<path fill-rule="evenodd" clip-rule="evenodd" d="M12.5549 13.9467C12.5549 14.1456 12.4759 14.3363 12.3352 14.477C12.1946 14.6177 12.0038 14.6967 11.8049 14.6967C11.606 14.6967 11.4152 14.6177 11.2746 14.477C11.1339 14.3363 11.0549 14.1456 11.0549 13.9467V9.775C11.0549 9.57609 11.1339 9.38532 11.2746 9.24467C11.4152 9.10402 11.606 9.025 11.8049 9.025C12.0038 9.025 12.1946 9.10402 12.3352 9.24467C12.4759 9.38532 12.5549 9.57609 12.5549 9.775V13.9467ZM9.11075 13.9467C9.11075 14.1456 9.03173 14.3363 8.89108 14.477C8.75043 14.6177 8.55966 14.6967 8.36075 14.6967C8.16184 14.6967 7.97107 14.6177 7.83042 14.477C7.68977 14.3363 7.61075 14.1456 7.61075 13.9467V9.775C7.61075 9.57609 7.68977 9.38532 7.83042 9.24467C7.97107 9.10402 8.16184 9.025 8.36075 9.025C8.55966 9.025 8.75043 9.10402 8.89108 9.24467C9.03173 9.38532 9.11075 9.57609 9.11075 9.775V13.9467ZM7.52409 3.21584C7.52409 2.99482 7.61188 2.78286 7.76816 2.62658C7.92444 2.4703 8.1364 2.3825 8.35742 2.3825H11.8108C12.2699 2.3825 12.6441 2.75584 12.6441 3.21584V4H7.52409V3.21584ZM16.9158 4H14.3108V3.21584C14.3108 1.8375 13.1899 0.715836 11.8108 0.715836H8.35742C6.97909 0.715836 5.85742 1.8375 5.85742 3.21584V4H3.08325C2.81804 4 2.56368 4.10536 2.37615 4.2929C2.18861 4.48043 2.08325 4.73479 2.08325 5V5.5C2.08325 5.76522 2.18861 6.01957 2.37615 6.20711C2.56368 6.39465 2.81804 6.5 3.08325 6.5H3.19242L3.58575 16.53C3.60621 17.0465 3.82581 17.5349 4.19851 17.893C4.57121 18.2511 5.06807 18.451 5.58492 18.4508H14.5816C15.0983 18.451 15.5949 18.251 15.9674 17.8929C16.3398 17.5348 16.559 17.0463 16.5791 16.53L16.9741 6.48834C17.2278 6.47534 17.4668 6.36565 17.6421 6.18183C17.8174 5.99801 17.9156 5.75401 17.9166 5.5V5C17.9166 4.44834 17.4683 4 16.9158 4Z" fill="#AEAEAE"/>
</svg>
