<svg width="24" height="24" viewBox="0 0 24 24" fill="none" xmlns="http://www.w3.org/2000/svg">
<path fill-rule="evenodd" clip-rule="evenodd" d="M13.8151 12.0001L19.4661 6.34912C19.5775 6.23769 19.666 6.1054 19.7264 5.95978C19.7867 5.81417 19.8178 5.6581 19.8179 5.50047C19.8179 5.34284 19.7869 5.18675 19.7266 5.0411C19.6664 4.89546 19.578 4.76311 19.4666 4.65162C19.3551 4.54013 19.2228 4.45167 19.0772 4.39131C18.9316 4.33094 18.7755 4.29985 18.6179 4.2998C18.4603 4.29976 18.3042 4.33076 18.1585 4.39104C18.0129 4.45132 17.8805 4.53969 17.7691 4.65112L12.1181 10.3031L6.46605 4.65112C6.23841 4.43849 5.93706 4.32263 5.62561 4.32799C5.31416 4.33335 5.01698 4.4595 4.79678 4.67983C4.57658 4.90015 4.4506 5.19741 4.44543 5.50887C4.44026 5.82032 4.5563 6.1216 4.76905 6.34912L10.4211 12.0001L4.76905 17.6511C4.60201 17.8193 4.48843 18.0331 4.4426 18.2657C4.39677 18.4983 4.42073 18.7392 4.51147 18.9582C4.60221 19.1772 4.75568 19.3645 4.95258 19.4965C5.14947 19.6285 5.381 19.6994 5.61805 19.7001C5.92505 19.7001 6.23205 19.5831 6.46605 19.3491L12.1181 13.6971L17.7691 19.3491C17.8803 19.4608 18.0126 19.5494 18.1582 19.6098C18.3038 19.6703 18.4599 19.7014 18.6176 19.7014C18.7752 19.7014 18.9313 19.6703 19.0769 19.6098C19.2225 19.5494 19.3548 19.4608 19.4661 19.3491C19.5776 19.2377 19.6661 19.1053 19.7265 18.9596C19.7869 18.814 19.818 18.6578 19.818 18.5001C19.818 18.3424 19.7869 18.1863 19.7265 18.0406C19.6661 17.8949 19.5776 17.7626 19.4661 17.6511L13.8151 12.0001Z" fill="#A1929A"/>
</svg>
